<svg version="1.0" xmlns="http://www.w3.org/2000/svg"
 width="613pt" height="476pt" viewBox="0 0 613 476"
 preserveAspectRatio="xMidYMid meet">
<g transform="translate(50,420) scale(0.1,-0.1)" fill="#000000" stroke="none">
<path d="M10 1918 l0 -1898 2605 0 2605 0 0 1898 0 1897 -2605 0 -2605 0 0
-1897z m240 1772 l0 -110 -110 0 -110 0 0 110 0 110 110 0 110 0 0 -110z m238
-2 l3 -108 -116 0 -115 0 0 110 0 111 113 -3 112 -3 3 -107z m232 2 l0 -110
-110 0 -110 0 0 110 0 110 110 0 110 0 0 -110z m240 0 l0 -110 -115 0 -115 0
0 103 c0 57 3 107 7 110 3 4 55 7 115 7 l108 0 0 -110z m230 0 l0 -110 -110 0
-110 0 0 110 0 110 110 0 110 0 0 -110z m240 0 l0 -110 -110 0 -110 0 0 110 0
110 110 0 110 0 0 -110z m240 0 l0 -110 -115 0 -115 0 0 110 0 110 115 0 115
0 0 -110z m230 0 l0 -110 -110 0 -110 0 0 110 0 110 110 0 110 0 0 -110z m240
0 l0 -110 -110 0 -110 0 0 110 0 110 110 0 110 0 0 -110z m238 -2 l3 -108
-116 0 -115 0 0 110 0 111 113 -3 112 -3 3 -107z m232 2 l0 -110 -110 0 -110
0 0 110 0 110 110 0 110 0 0 -110z m240 0 l0 -110 -115 0 -115 0 0 110 0 110
115 0 115 0 0 -110z m230 0 l0 -110 -110 0 -110 0 0 110 0 110 110 0 110 0 0
-110z m240 0 l0 -110 -110 0 -110 0 0 110 0 110 110 0 110 0 0 -110z m240 0
l0 -110 -115 0 -115 0 0 110 0 110 115 0 115 0 0 -110z m230 0 l0 -110 -110 0
-110 0 0 110 0 110 110 0 110 0 0 -110z m240 0 l0 -110 -115 0 -115 0 0 103
c0 57 3 107 7 110 3 4 55 7 115 7 l108 0 0 -110z m238 -2 l3 -108 -116 0 -115
0 0 110 0 111 113 -3 112 -3 3 -107z m232 2 l0 -110 -110 0 -110 0 0 110 0
110 110 0 110 0 0 -110z m240 0 l0 -110 -115 0 -115 0 0 110 0 110 115 0 115
0 0 -110z m230 0 l0 -110 -110 0 -110 0 0 110 0 110 110 0 110 0 0 -110z m240
0 l0 -110 -110 0 -110 0 0 110 0 110 110 0 110 0 0 -110z m-4960 -240 l0 -110
-110 0 -110 0 0 110 0 110 110 0 110 0 0 -110z m238 3 l-3 -108 -112 -3 -113
-3 0 111 0 110 115 0 116 0 -3 -107z m232 -3 l0 -110 -110 0 -110 0 0 110 0
110 110 0 110 0 0 -110z m240 0 l0 -111 -112 3 -113 3 -3 108 -3 107 116 0
115 0 0 -110z m230 0 l0 -110 -110 0 -110 0 0 110 0 110 110 0 110 0 0 -110z
m240 0 l0 -110 -110 0 -110 0 0 110 0 110 110 0 110 0 0 -110z m240 0 l0 -110
-115 0 -115 0 0 110 0 110 115 0 115 0 0 -110z m230 0 l0 -110 -110 0 -110 0
0 110 0 110 110 0 110 0 0 -110z m240 0 l0 -110 -110 0 -110 0 0 110 0 110
110 0 110 0 0 -110z m238 3 l-3 -108 -112 -3 -113 -3 0 111 0 110 115 0 116 0
-3 -107z m232 -3 l0 -110 -110 0 -110 0 0 110 0 110 110 0 110 0 0 -110z m240
0 l0 -110 -115 0 -115 0 0 110 0 110 115 0 115 0 0 -110z m230 0 l0 -110 -110
0 -110 0 0 110 0 110 110 0 110 0 0 -110z m240 0 l0 -110 -110 0 -110 0 0 110
0 110 110 0 110 0 0 -110z m240 0 l0 -110 -115 0 -115 0 0 110 0 110 115 0
115 0 0 -110z m230 0 l0 -110 -110 0 -110 0 0 110 0 110 110 0 110 0 0 -110z
m240 0 l0 -111 -112 3 -113 3 -3 108 -3 107 116 0 115 0 0 -110z m238 3 l-3
-108 -112 -3 -113 -3 0 111 0 110 115 0 116 0 -3 -107z m232 -3 l0 -110 -110
0 -110 0 0 110 0 110 110 0 110 0 0 -110z m240 0 l0 -110 -115 0 -115 0 0 110
0 110 115 0 115 0 0 -110z m230 0 l0 -110 -110 0 -110 0 0 110 0 110 110 0
110 0 0 -110z m240 0 l0 -110 -110 0 -110 0 0 110 0 110 110 0 110 0 0 -110z
m-4960 -235 l0 -115 -110 0 -110 0 0 115 0 115 110 0 110 0 0 -115z m235 0 l0
-110 -112 -3 -113 -3 0 116 0 116 113 -3 112 -3 0 -110z m235 0 l0 -115 -110
0 -110 0 0 115 0 115 110 0 110 0 0 -115z m240 0 l0 -116 -112 3 -113 3 -3 99
c-1 55 0 106 2 113 4 10 33 13 116 13 l110 0 0 -115z m230 0 l0 -115 -110 0
-110 0 0 115 0 115 110 0 110 0 0 -115z m240 0 l0 -115 -110 0 -110 0 0 115 0
115 110 0 110 0 0 -115z m238 3 l-3 -113 -110 0 -110 0 -3 113 -3 112 116 0
116 0 -3 -112z m232 -3 l0 -115 -110 0 -110 0 0 115 0 115 110 0 110 0 0 -115z
m240 0 l0 -115 -110 0 -110 0 0 115 0 115 110 0 110 0 0 -115z m235 0 l0 -110
-112 -3 -113 -3 0 116 0 116 113 -3 112 -3 0 -110z m235 0 l0 -115 -110 0
-110 0 0 115 0 115 110 0 110 0 0 -115z m240 0 l0 -116 -112 3 -113 3 -3 113
-3 112 116 0 115 0 0 -115z m230 0 l0 -115 -110 0 -110 0 0 115 0 115 110 0
110 0 0 -115z m240 0 l0 -115 -110 0 -110 0 0 115 0 115 110 0 110 0 0 -115z
m238 3 l-3 -113 -112 -3 -113 -3 0 116 0 115 115 0 116 0 -3 -112z m232 -3 l0
-115 -110 0 -110 0 0 115 0 115 110 0 110 0 0 -115z m240 0 l0 -116 -112 3
-113 3 -3 99 c-1 55 0 106 2 113 4 10 33 13 116 13 l110 0 0 -115z m235 0 l0
-110 -112 -3 -113 -3 0 116 0 116 113 -3 112 -3 0 -110z m235 0 l0 -115 -110
0 -110 0 0 115 0 115 110 0 110 0 0 -115z m240 0 l0 -116 -112 3 -113 3 -3
113 -3 112 116 0 115 0 0 -115z m230 0 l0 -115 -110 0 -110 0 0 115 0 115 110
0 110 0 0 -115z m240 0 l0 -115 -110 0 -110 0 0 115 0 115 110 0 110 0 0 -115z
m-4960 -235 l0 -110 -110 0 -110 0 0 110 0 110 110 0 110 0 0 -110z m235 0 l0
-105 -112 -3 -113 -3 0 111 0 111 113 -3 112 -3 0 -105z m235 0 l0 -110 -110
0 -110 0 0 110 0 110 110 0 110 0 0 -110z m240 0 l0 -111 -112 3 -113 3 -3 94
c-1 52 -1 100 2 108 4 10 33 13 116 13 l110 0 0 -110z m230 0 l0 -110 -110 0
-110 0 0 110 0 110 110 0 110 0 0 -110z m240 0 l0 -110 -110 0 -110 0 0 110 0
110 110 0 110 0 0 -110z m240 0 l0 -110 -115 0 -115 0 0 110 0 110 115 0 115
0 0 -110z m230 0 l0 -110 -110 0 -110 0 0 110 0 110 110 0 110 0 0 -110z m240
0 l0 -110 -110 0 -110 0 0 110 0 110 110 0 110 0 0 -110z m235 0 l0 -105 -112
-3 -113 -3 0 111 0 111 113 -3 112 -3 0 -105z m235 0 l0 -110 -110 0 -110 0 0
110 0 110 110 0 110 0 0 -110z m240 0 l0 -110 -115 0 -115 0 0 110 0 110 115
0 115 0 0 -110z m230 0 l0 -110 -110 0 -110 0 0 110 0 110 110 0 110 0 0 -110z
m240 0 l0 -110 -110 0 -110 0 0 110 0 110 110 0 110 0 0 -110z m240 0 l0 -110
-115 0 -115 0 0 110 0 110 115 0 115 0 0 -110z m230 0 l0 -110 -110 0 -110 0
0 110 0 110 110 0 110 0 0 -110z m240 0 l0 -111 -112 3 -113 3 -3 94 c-1 52
-1 100 2 108 4 10 33 13 116 13 l110 0 0 -110z m235 0 l0 -105 -112 -3 -113
-3 0 111 0 111 113 -3 112 -3 0 -105z m235 0 l0 -110 -110 0 -110 0 0 110 0
110 110 0 110 0 0 -110z m240 0 l0 -110 -115 0 -115 0 0 110 0 110 115 0 115
0 0 -110z m230 0 l0 -110 -110 0 -110 0 0 110 0 110 110 0 110 0 0 -110z m240
0 l0 -110 -110 0 -110 0 0 110 0 110 110 0 110 0 0 -110z m-4960 -235 l0 -115
-110 0 -110 0 0 115 0 115 110 0 110 0 0 -115z m235 0 l0 -110 -112 -3 -113
-3 0 116 0 116 113 -3 112 -3 0 -110z m235 0 l0 -115 -110 0 -110 0 0 115 0
115 110 0 110 0 0 -115z m240 0 l0 -116 -112 3 -113 3 -3 99 c-1 55 0 106 2
113 4 10 33 13 116 13 l110 0 0 -115z m230 0 l0 -115 -110 0 -110 0 0 115 0
115 110 0 110 0 0 -115z m240 0 l0 -115 -110 0 -110 0 0 115 0 115 110 0 110
0 0 -115z m235 0 l0 -110 -110 0 -110 0 -3 99 c-1 55 0 106 2 113 4 11 30 13
113 11 l108 -3 0 -110z m235 0 l0 -115 -110 0 -110 0 0 115 0 115 110 0 110 0
0 -115z m240 0 l0 -115 -110 0 -110 0 0 115 0 115 110 0 110 0 0 -115z m235 0
l0 -110 -112 -3 -113 -3 0 116 0 116 113 -3 112 -3 0 -110z m235 0 l0 -115
-110 0 -110 0 0 115 0 115 110 0 110 0 0 -115z m240 0 l0 -116 -112 3 -113 3
-3 99 c-1 55 0 106 2 113 4 10 33 13 116 13 l110 0 0 -115z m230 0 l0 -115
-110 0 -110 0 0 115 0 115 110 0 110 0 0 -115z m240 0 l0 -115 -110 0 -110 0
0 115 0 115 110 0 110 0 0 -115z m235 0 l0 -110 -112 -3 -113 -3 0 116 0 116
113 -3 112 -3 0 -110z m235 0 l0 -115 -110 0 -110 0 0 115 0 115 110 0 110 0
0 -115z m240 0 l0 -116 -112 3 -113 3 -3 99 c-1 55 0 106 2 113 4 10 33 13
116 13 l110 0 0 -115z m235 0 l0 -110 -112 -3 -113 -3 0 116 0 116 113 -3 112
-3 0 -110z m235 0 l0 -115 -110 0 -110 0 0 115 0 115 110 0 110 0 0 -115z
m240 0 l0 -116 -112 3 -113 3 -3 99 c-1 55 0 106 2 113 4 10 33 13 116 13
l110 0 0 -115z m230 0 l0 -115 -110 0 -110 0 0 115 0 115 110 0 110 0 0 -115z
m240 0 l0 -115 -110 0 -110 0 0 115 0 115 110 0 110 0 0 -115z m-4960 -235 l0
-110 -110 0 -110 0 0 110 0 110 110 0 110 0 0 -110z m238 -2 l3 -108 -116 0
-115 0 0 110 0 111 113 -3 112 -3 3 -107z m232 2 l0 -110 -110 0 -110 0 0 110
0 110 110 0 110 0 0 -110z m240 0 l0 -110 -115 0 -115 0 0 103 c0 57 3 107 7
110 3 4 55 7 115 7 l108 0 0 -110z m230 0 l0 -110 -110 0 -110 0 0 110 0 110
110 0 110 0 0 -110z m240 0 l0 -110 -110 0 -110 0 0 110 0 110 110 0 110 0 0
-110z m240 0 l0 -110 -115 0 -115 0 0 110 0 110 115 0 115 0 0 -110z m230 0
l0 -110 -110 0 -110 0 0 110 0 110 110 0 110 0 0 -110z m240 0 l0 -110 -110 0
-110 0 0 110 0 110 110 0 110 0 0 -110z m238 -2 l3 -108 -116 0 -115 0 0 110
0 111 113 -3 112 -3 3 -107z m232 2 l0 -110 -110 0 -110 0 0 110 0 110 110 0
110 0 0 -110z m240 0 l0 -110 -115 0 -115 0 0 110 0 110 115 0 115 0 0 -110z
m230 0 l0 -110 -110 0 -110 0 0 110 0 110 110 0 110 0 0 -110z m240 0 l0 -110
-110 0 -110 0 0 110 0 110 110 0 110 0 0 -110z m240 0 l0 -110 -115 0 -115 0
0 110 0 110 115 0 115 0 0 -110z m230 0 l0 -110 -110 0 -110 0 0 110 0 110
110 0 110 0 0 -110z m240 0 l0 -110 -115 0 -115 0 0 103 c0 57 3 107 7 110 3
4 55 7 115 7 l108 0 0 -110z m238 -2 l3 -108 -116 0 -115 0 0 110 0 111 113
-3 112 -3 3 -107z m232 2 l0 -110 -110 0 -110 0 0 110 0 110 110 0 110 0 0
-110z m240 0 l0 -110 -115 0 -115 0 0 110 0 110 115 0 115 0 0 -110z m230 0
l0 -110 -110 0 -110 0 0 110 0 110 110 0 110 0 0 -110z m240 0 l0 -110 -110 0
-110 0 0 110 0 110 110 0 110 0 0 -110z m-4960 -240 l0 -110 -110 0 -110 0 0
110 0 110 110 0 110 0 0 -110z m238 3 l-3 -108 -112 -3 -113 -3 0 111 0 110
115 0 116 0 -3 -107z m232 -3 l0 -110 -110 0 -110 0 0 110 0 110 110 0 110 0
0 -110z m240 0 l0 -111 -112 3 -113 3 -3 108 -3 107 116 0 115 0 0 -110z m230
0 l0 -110 -110 0 -110 0 0 110 0 110 110 0 110 0 0 -110z m240 0 l0 -110 -110
0 -110 0 0 110 0 110 110 0 110 0 0 -110z m240 0 l0 -110 -115 0 -115 0 0 110
0 110 115 0 115 0 0 -110z m230 0 l0 -110 -110 0 -110 0 0 110 0 110 110 0
110 0 0 -110z m240 0 l0 -110 -110 0 -110 0 0 110 0 110 110 0 110 0 0 -110z
m238 3 l-3 -108 -112 -3 -113 -3 0 111 0 110 115 0 116 0 -3 -107z m232 -3 l0
-110 -110 0 -110 0 0 110 0 110 110 0 110 0 0 -110z m240 0 l0 -110 -115 0
-115 0 0 110 0 110 115 0 115 0 0 -110z m230 0 l0 -110 -110 0 -110 0 0 110 0
110 110 0 110 0 0 -110z m240 0 l0 -110 -110 0 -110 0 0 110 0 110 110 0 110
0 0 -110z m240 0 l0 -110 -115 0 -115 0 0 110 0 110 115 0 115 0 0 -110z m230
0 l0 -110 -110 0 -110 0 0 110 0 110 110 0 110 0 0 -110z m240 0 l0 -111 -112
3 -113 3 -3 108 -3 107 116 0 115 0 0 -110z m238 3 l-3 -108 -112 -3 -113 -3
0 111 0 110 115 0 116 0 -3 -107z m232 -3 l0 -110 -110 0 -110 0 0 110 0 110
110 0 110 0 0 -110z m240 0 l0 -110 -115 0 -115 0 0 110 0 110 115 0 115 0 0
-110z m230 0 l0 -110 -110 0 -110 0 0 110 0 110 110 0 110 0 0 -110z m240 0
l0 -110 -110 0 -110 0 0 110 0 110 110 0 110 0 0 -110z m-4960 -235 l0 -115
-110 0 -110 0 0 115 0 115 110 0 110 0 0 -115z m235 0 l0 -110 -112 -3 -113
-3 0 116 0 116 113 -3 112 -3 0 -110z m235 0 l0 -115 -110 0 -110 0 0 115 0
115 110 0 110 0 0 -115z m240 0 l0 -116 -112 3 -113 3 -3 99 c-1 55 0 106 2
113 4 10 33 13 116 13 l110 0 0 -115z m230 0 l0 -115 -110 0 -110 0 0 115 0
115 110 0 110 0 0 -115z m240 0 l0 -115 -110 0 -110 0 0 115 0 115 110 0 110
0 0 -115z m235 0 l0 -110 -110 0 -110 0 -3 99 c-1 55 0 106 2 113 4 11 30 13
113 11 l108 -3 0 -110z m235 0 l0 -115 -110 0 -110 0 0 115 0 115 110 0 110 0
0 -115z m240 0 l0 -115 -110 0 -110 0 0 115 0 115 110 0 110 0 0 -115z m235 0
l0 -110 -112 -3 -113 -3 0 116 0 116 113 -3 112 -3 0 -110z m235 0 l0 -115
-110 0 -110 0 0 115 0 115 110 0 110 0 0 -115z m240 0 l0 -116 -112 3 -113 3
-3 99 c-1 55 0 106 2 113 4 10 33 13 116 13 l110 0 0 -115z m230 0 l0 -115
-110 0 -110 0 0 115 0 115 110 0 110 0 0 -115z m240 0 l0 -115 -110 0 -110 0
0 115 0 115 110 0 110 0 0 -115z m235 0 l0 -110 -112 -3 -113 -3 0 116 0 116
113 -3 112 -3 0 -110z m235 0 l0 -115 -110 0 -110 0 0 115 0 115 110 0 110 0
0 -115z m240 0 l0 -116 -112 3 -113 3 -3 99 c-1 55 0 106 2 113 4 10 33 13
116 13 l110 0 0 -115z m235 0 l0 -110 -112 -3 -113 -3 0 116 0 116 113 -3 112
-3 0 -110z m235 0 l0 -115 -110 0 -110 0 0 115 0 115 110 0 110 0 0 -115z
m240 0 l0 -116 -112 3 -113 3 -3 99 c-1 55 0 106 2 113 4 10 33 13 116 13
l110 0 0 -115z m230 0 l0 -115 -110 0 -110 0 0 115 0 115 110 0 110 0 0 -115z
m240 0 l0 -115 -110 0 -110 0 0 115 0 115 110 0 110 0 0 -115z m-4960 -235 l0
-110 -110 0 -110 0 0 110 0 110 110 0 110 0 0 -110z m235 0 l0 -105 -112 -3
-113 -3 0 111 0 111 113 -3 112 -3 0 -105z m235 0 l0 -110 -110 0 -110 0 0
110 0 110 110 0 110 0 0 -110z m240 0 l0 -111 -112 3 -113 3 -3 94 c-1 52 -1
100 2 108 4 10 33 13 116 13 l110 0 0 -110z m230 0 l0 -110 -110 0 -110 0 0
110 0 110 110 0 110 0 0 -110z m240 0 l0 -110 -110 0 -110 0 0 110 0 110 110
0 110 0 0 -110z m240 0 l0 -110 -115 0 -115 0 0 110 0 110 115 0 115 0 0 -110z
m230 0 l0 -110 -110 0 -110 0 0 110 0 110 110 0 110 0 0 -110z m240 0 l0 -110
-110 0 -110 0 0 110 0 110 110 0 110 0 0 -110z m235 0 l0 -105 -112 -3 -113
-3 0 111 0 111 113 -3 112 -3 0 -105z m235 0 l0 -110 -110 0 -110 0 0 110 0
110 110 0 110 0 0 -110z m240 0 l0 -110 -115 0 -115 0 0 110 0 110 115 0 115
0 0 -110z m230 0 l0 -110 -110 0 -110 0 0 110 0 110 110 0 110 0 0 -110z m240
0 l0 -110 -110 0 -110 0 0 110 0 110 110 0 110 0 0 -110z m240 0 l0 -110 -115
0 -115 0 0 110 0 110 115 0 115 0 0 -110z m230 0 l0 -110 -110 0 -110 0 0 110
0 110 110 0 110 0 0 -110z m240 0 l0 -111 -112 3 -113 3 -3 94 c-1 52 -1 100
2 108 4 10 33 13 116 13 l110 0 0 -110z m235 0 l0 -105 -112 -3 -113 -3 0 111
0 111 113 -3 112 -3 0 -105z m235 0 l0 -110 -110 0 -110 0 0 110 0 110 110 0
110 0 0 -110z m240 0 l0 -110 -115 0 -115 0 0 110 0 110 115 0 115 0 0 -110z
m230 0 l0 -110 -110 0 -110 0 0 110 0 110 110 0 110 0 0 -110z m240 0 l0 -110
-110 0 -110 0 0 110 0 110 110 0 110 0 0 -110z m-4960 -240 l0 -110 -110 0
-110 0 0 110 0 110 110 0 110 0 0 -110z m238 3 l-3 -108 -112 -3 -113 -3 0
111 0 110 115 0 116 0 -3 -107z m232 -3 l0 -110 -110 0 -110 0 0 110 0 110
110 0 110 0 0 -110z m240 0 l0 -111 -112 3 -113 3 -3 108 -3 107 116 0 115 0
0 -110z m230 0 l0 -110 -110 0 -110 0 0 110 0 110 110 0 110 0 0 -110z m240 0
l0 -110 -110 0 -110 0 0 110 0 110 110 0 110 0 0 -110z m240 0 l0 -110 -115 0
-115 0 0 110 0 110 115 0 115 0 0 -110z m230 0 l0 -110 -110 0 -110 0 0 110 0
110 110 0 110 0 0 -110z m240 0 l0 -110 -110 0 -110 0 0 110 0 110 110 0 110
0 0 -110z m238 3 l-3 -108 -112 -3 -113 -3 0 111 0 110 115 0 116 0 -3 -107z
m232 -3 l0 -110 -110 0 -110 0 0 110 0 110 110 0 110 0 0 -110z m240 0 l0
-110 -115 0 -115 0 0 110 0 110 115 0 115 0 0 -110z m230 0 l0 -110 -110 0
-110 0 0 110 0 110 110 0 110 0 0 -110z m240 0 l0 -110 -110 0 -110 0 0 110 0
110 110 0 110 0 0 -110z m240 0 l0 -110 -115 0 -115 0 0 110 0 110 115 0 115
0 0 -110z m230 0 l0 -110 -110 0 -110 0 0 110 0 110 110 0 110 0 0 -110z m240
0 l0 -111 -112 3 -113 3 -3 108 -3 107 116 0 115 0 0 -110z m238 3 l-3 -108
-112 -3 -113 -3 0 111 0 110 115 0 116 0 -3 -107z m232 -3 l0 -110 -110 0
-110 0 0 110 0 110 110 0 110 0 0 -110z m240 0 l0 -110 -115 0 -115 0 0 110 0
110 115 0 115 0 0 -110z m230 0 l0 -110 -110 0 -110 0 0 110 0 110 110 0 110
0 0 -110z m240 0 l0 -110 -110 0 -110 0 0 110 0 110 110 0 110 0 0 -110z
m-4960 -230 l0 -110 -110 0 -110 0 0 110 0 110 110 0 110 0 0 -110z m238 -2
l3 -108 -116 0 -115 0 0 110 0 111 113 -3 112 -3 3 -107z m232 2 l0 -110 -110
0 -110 0 0 110 0 110 110 0 110 0 0 -110z m240 0 l0 -110 -115 0 -115 0 0 103
c0 57 3 107 7 110 3 4 55 7 115 7 l108 0 0 -110z m230 0 l0 -110 -110 0 -110
0 0 110 0 110 110 0 110 0 0 -110z m240 0 l0 -110 -110 0 -110 0 0 110 0 110
110 0 110 0 0 -110z m240 0 l0 -110 -115 0 -115 0 0 110 0 110 115 0 115 0 0
-110z m230 0 l0 -110 -110 0 -110 0 0 110 0 110 110 0 110 0 0 -110z m240 0
l0 -110 -110 0 -110 0 0 110 0 110 110 0 110 0 0 -110z m238 -2 l3 -108 -116
0 -115 0 0 110 0 111 113 -3 112 -3 3 -107z m232 2 l0 -110 -110 0 -110 0 0
110 0 110 110 0 110 0 0 -110z m240 0 l0 -110 -115 0 -115 0 0 110 0 110 115
0 115 0 0 -110z m230 0 l0 -110 -110 0 -110 0 0 110 0 110 110 0 110 0 0 -110z
m240 0 l0 -110 -110 0 -110 0 0 110 0 110 110 0 110 0 0 -110z m240 0 l0 -110
-115 0 -115 0 0 110 0 110 115 0 115 0 0 -110z m230 0 l0 -110 -110 0 -110 0
0 110 0 110 110 0 110 0 0 -110z m240 0 l0 -110 -115 0 -115 0 0 103 c0 57 3
107 7 110 3 4 55 7 115 7 l108 0 0 -110z m238 -2 l3 -108 -116 0 -115 0 0 110
0 111 113 -3 112 -3 3 -107z m232 2 l0 -110 -110 0 -110 0 0 110 0 110 110 0
110 0 0 -110z m240 0 l0 -110 -115 0 -115 0 0 110 0 110 115 0 115 0 0 -110z
m230 0 l0 -110 -110 0 -110 0 0 110 0 110 110 0 110 0 0 -110z m240 0 l0 -110
-110 0 -110 0 0 110 0 110 110 0 110 0 0 -110z m-4960 -240 l0 -110 -110 0
-110 0 0 110 0 110 110 0 110 0 0 -110z m235 0 l0 -105 -112 -3 -113 -3 0 111
0 111 113 -3 112 -3 0 -105z m235 0 l0 -110 -110 0 -110 0 0 110 0 110 110 0
110 0 0 -110z m240 0 l0 -111 -112 3 -113 3 -3 94 c-1 52 -1 100 2 108 4 10
33 13 116 13 l110 0 0 -110z m230 0 l0 -110 -110 0 -110 0 0 110 0 110 110 0
110 0 0 -110z m240 0 l0 -110 -110 0 -110 0 0 110 0 110 110 0 110 0 0 -110z
m240 0 l0 -110 -115 0 -115 0 0 110 0 110 115 0 115 0 0 -110z m230 0 l0 -110
-110 0 -110 0 0 110 0 110 110 0 110 0 0 -110z m240 0 l0 -110 -110 0 -110 0
0 110 0 110 110 0 110 0 0 -110z m235 0 l0 -105 -112 -3 -113 -3 0 111 0 111
113 -3 112 -3 0 -105z m235 0 l0 -110 -110 0 -110 0 0 110 0 110 110 0 110 0
0 -110z m240 0 l0 -110 -115 0 -115 0 0 110 0 110 115 0 115 0 0 -110z m230 0
l0 -110 -110 0 -110 0 0 110 0 110 110 0 110 0 0 -110z m240 0 l0 -110 -110 0
-110 0 0 110 0 110 110 0 110 0 0 -110z m240 0 l0 -110 -115 0 -115 0 0 110 0
110 115 0 115 0 0 -110z m230 0 l0 -110 -110 0 -110 0 0 110 0 110 110 0 110
0 0 -110z m240 0 l0 -111 -112 3 -113 3 -3 94 c-1 52 -1 100 2 108 4 10 33 13
116 13 l110 0 0 -110z m235 0 l0 -105 -112 -3 -113 -3 0 111 0 111 113 -3 112
-3 0 -105z m235 0 l0 -110 -110 0 -110 0 0 110 0 110 110 0 110 0 0 -110z
m240 0 l0 -110 -115 0 -115 0 0 110 0 110 115 0 115 0 0 -110z m230 0 l0 -110
-110 0 -110 0 0 110 0 110 110 0 110 0 0 -110z m240 0 l0 -110 -110 0 -110 0
0 110 0 110 110 0 110 0 0 -110z m-4960 -235 l0 -115 -110 0 -110 0 0 115 0
115 110 0 110 0 0 -115z m235 0 l0 -110 -112 -3 -113 -3 0 116 0 116 113 -3
112 -3 0 -110z m235 0 l0 -115 -110 0 -110 0 0 115 0 115 110 0 110 0 0 -115z
m240 0 l0 -116 -112 3 -113 3 -3 99 c-1 55 0 106 2 113 4 10 33 13 116 13
l110 0 0 -115z m230 0 l0 -115 -110 0 -110 0 0 115 0 115 110 0 110 0 0 -115z
m240 0 l0 -115 -110 0 -110 0 0 115 0 115 110 0 110 0 0 -115z m235 0 l0 -110
-110 0 -110 0 -3 99 c-1 55 0 106 2 113 4 11 30 13 113 11 l108 -3 0 -110z
m235 0 l0 -115 -110 0 -110 0 0 115 0 115 110 0 110 0 0 -115z m240 0 l0 -115
-110 0 -110 0 0 115 0 115 110 0 110 0 0 -115z m235 0 l0 -110 -112 -3 -113
-3 0 116 0 116 113 -3 112 -3 0 -110z m235 0 l0 -115 -110 0 -110 0 0 115 0
115 110 0 110 0 0 -115z m240 0 l0 -116 -112 3 -113 3 -3 99 c-1 55 0 106 2
113 4 10 33 13 116 13 l110 0 0 -115z m230 0 l0 -115 -110 0 -110 0 0 115 0
115 110 0 110 0 0 -115z m240 0 l0 -115 -110 0 -110 0 0 115 0 115 110 0 110
0 0 -115z m235 0 l0 -110 -112 -3 -113 -3 0 116 0 116 113 -3 112 -3 0 -110z
m235 0 l0 -115 -110 0 -110 0 0 115 0 115 110 0 110 0 0 -115z m240 0 l0 -116
-112 3 -113 3 -3 99 c-1 55 0 106 2 113 4 10 33 13 116 13 l110 0 0 -115z
m235 0 l0 -110 -112 -3 -113 -3 0 116 0 116 113 -3 112 -3 0 -110z m235 0 l0
-115 -110 0 -110 0 0 115 0 115 110 0 110 0 0 -115z m240 0 l0 -116 -112 3
-113 3 -3 99 c-1 55 0 106 2 113 4 10 33 13 116 13 l110 0 0 -115z m230 0 l0
-115 -110 0 -110 0 0 115 0 115 110 0 110 0 0 -115z m240 0 l0 -115 -110 0
-110 0 0 115 0 115 110 0 110 0 0 -115z m-4960 -235 l0 -110 -110 0 -110 0 0
110 0 110 110 0 110 0 0 -110z m238 -2 l3 -108 -116 0 -115 0 0 110 0 111 113
-3 112 -3 3 -107z m232 2 l0 -110 -110 0 -110 0 0 110 0 110 110 0 110 0 0
-110z m240 0 l0 -110 -115 0 -115 0 0 103 c0 57 3 107 7 110 3 4 55 7 115 7
l108 0 0 -110z m230 0 l0 -110 -110 0 -110 0 0 110 0 110 110 0 110 0 0 -110z
m240 0 l0 -110 -110 0 -110 0 0 110 0 110 110 0 110 0 0 -110z m240 0 l0 -110
-115 0 -115 0 0 110 0 110 115 0 115 0 0 -110z m230 0 l0 -110 -110 0 -110 0
0 110 0 110 110 0 110 0 0 -110z m240 0 l0 -110 -110 0 -110 0 0 110 0 110
110 0 110 0 0 -110z m238 -2 l3 -108 -116 0 -115 0 0 110 0 111 113 -3 112 -3
3 -107z m232 2 l0 -110 -110 0 -110 0 0 110 0 110 110 0 110 0 0 -110z m240 0
l0 -110 -115 0 -115 0 0 110 0 110 115 0 115 0 0 -110z m230 0 l0 -110 -110 0
-110 0 0 110 0 110 110 0 110 0 0 -110z m240 0 l0 -110 -110 0 -110 0 0 110 0
110 110 0 110 0 0 -110z m240 0 l0 -110 -115 0 -115 0 0 110 0 110 115 0 115
0 0 -110z m230 0 l0 -110 -110 0 -110 0 0 110 0 110 110 0 110 0 0 -110z m240
0 l0 -110 -115 0 -115 0 0 103 c0 57 3 107 7 110 3 4 55 7 115 7 l108 0 0
-110z m238 -2 l3 -108 -116 0 -115 0 0 110 0 111 113 -3 112 -3 3 -107z m232
2 l0 -110 -110 0 -110 0 0 110 0 110 110 0 110 0 0 -110z m240 0 l0 -110 -115
0 -115 0 0 110 0 110 115 0 115 0 0 -110z m230 0 l0 -110 -110 0 -110 0 0 110
0 110 110 0 110 0 0 -110z m240 0 l0 -110 -110 0 -110 0 0 110 0 110 110 0
110 0 0 -110z m-4960 -240 l0 -110 -110 0 -110 0 0 110 0 110 110 0 110 0 0
-110z m238 3 l-3 -108 -112 -3 -113 -3 0 111 0 110 115 0 116 0 -3 -107z m232
-3 l0 -110 -110 0 -110 0 0 110 0 110 110 0 110 0 0 -110z m240 0 l0 -111
-112 3 -113 3 -3 108 -3 107 116 0 115 0 0 -110z m230 0 l0 -110 -110 0 -110
0 0 110 0 110 110 0 110 0 0 -110z m240 0 l0 -110 -110 0 -110 0 0 110 0 110
110 0 110 0 0 -110z m240 0 l0 -110 -115 0 -115 0 0 110 0 110 115 0 115 0 0
-110z m230 0 l0 -110 -110 0 -110 0 0 110 0 110 110 0 110 0 0 -110z m240 0
l0 -110 -110 0 -110 0 0 110 0 110 110 0 110 0 0 -110z m238 3 l-3 -108 -112
-3 -113 -3 0 111 0 110 115 0 116 0 -3 -107z m232 -3 l0 -110 -110 0 -110 0 0
110 0 110 110 0 110 0 0 -110z m240 0 l0 -110 -115 0 -115 0 0 110 0 110 115
0 115 0 0 -110z m230 0 l0 -110 -110 0 -110 0 0 110 0 110 110 0 110 0 0 -110z
m240 0 l0 -110 -110 0 -110 0 0 110 0 110 110 0 110 0 0 -110z m240 0 l0 -110
-115 0 -115 0 0 110 0 110 115 0 115 0 0 -110z m230 0 l0 -110 -110 0 -110 0
0 110 0 110 110 0 110 0 0 -110z m240 0 l0 -111 -112 3 -113 3 -3 108 -3 107
116 0 115 0 0 -110z m238 3 l-3 -108 -112 -3 -113 -3 0 111 0 110 115 0 116 0
-3 -107z m232 -3 l0 -110 -110 0 -110 0 0 110 0 110 110 0 110 0 0 -110z m240
0 l0 -110 -115 0 -115 0 0 110 0 110 115 0 115 0 0 -110z m230 0 l0 -110 -110
0 -110 0 0 110 0 110 110 0 110 0 0 -110z m240 0 l0 -110 -110 0 -110 0 0 110
0 110 110 0 110 0 0 -110z m-4960 -235 l0 -115 -110 0 -110 0 0 115 0 115 110
0 110 0 0 -115z m235 0 l0 -110 -112 -3 -113 -3 0 116 0 116 113 -3 112 -3 0
-110z m235 0 l0 -115 -110 0 -110 0 0 115 0 115 110 0 110 0 0 -115z m240 0
l0 -116 -112 3 -113 3 -3 99 c-1 55 0 106 2 113 4 10 33 13 116 13 l110 0 0
-115z m230 0 l0 -115 -110 0 -110 0 0 115 0 115 110 0 110 0 0 -115z m240 0
l0 -115 -110 0 -110 0 0 115 0 115 110 0 110 0 0 -115z m235 0 l0 -110 -110 0
-110 0 -3 99 c-1 55 0 106 2 113 4 11 30 13 113 11 l108 -3 0 -110z m235 0 l0
-115 -110 0 -110 0 0 115 0 115 110 0 110 0 0 -115z m240 0 l0 -115 -110 0
-110 0 0 115 0 115 110 0 110 0 0 -115z m235 0 l0 -110 -112 -3 -113 -3 0 116
0 116 113 -3 112 -3 0 -110z m235 0 l0 -115 -110 0 -110 0 0 115 0 115 110 0
110 0 0 -115z m240 0 l0 -116 -112 3 -113 3 -3 99 c-1 55 0 106 2 113 4 10 33
13 116 13 l110 0 0 -115z m230 0 l0 -115 -110 0 -110 0 0 115 0 115 110 0 110
0 0 -115z m240 0 l0 -115 -110 0 -110 0 0 115 0 115 110 0 110 0 0 -115z m235
0 l0 -110 -112 -3 -113 -3 0 116 0 116 113 -3 112 -3 0 -110z m235 0 l0 -115
-110 0 -110 0 0 115 0 115 110 0 110 0 0 -115z m240 0 l0 -116 -112 3 -113 3
-3 99 c-1 55 0 106 2 113 4 10 33 13 116 13 l110 0 0 -115z m235 0 l0 -110
-112 -3 -113 -3 0 116 0 116 113 -3 112 -3 0 -110z m235 0 l0 -115 -110 0
-110 0 0 115 0 115 110 0 110 0 0 -115z m240 0 l0 -116 -112 3 -113 3 -3 99
c-1 55 0 106 2 113 4 10 33 13 116 13 l110 0 0 -115z m230 0 l0 -115 -110 0
-110 0 0 115 0 115 110 0 110 0 0 -115z m240 0 l0 -115 -110 0 -110 0 0 115 0
115 110 0 110 0 0 -115z"/>
</g>
<text id="bc3-txt-title" x="150" y="15" style="font-size:24px;text-decoration:underline;">Title</text>
</svg>
