<svg version="1.0" xmlns="http://www.w3.org/2000/svg"
 width="1012pt" height="222pt" viewBox="0 0 1012 250"
 preserveAspectRatio="xMidYMid meet">
<g transform="translate(0,222) scale(0.1,-0.1)" fill="#000000" stroke="none">
<path d="M110 1150 l0 -1060 -30 0 c-29 0 -30 -2 -30 -45 l0 -45 5030 0 5030
0 0 45 c0 41 -2 45 -25 45 l-25 0 0 1060 0 1060 -4975 0 -4975 0 0 -1060z
m360 875 l0 -165 -165 0 -165 0 0 165 0 165 165 0 165 0 0 -165z m350 0 l0
-165 -165 0 -165 0 0 165 0 165 165 0 165 0 0 -165z m360 0 l0 -165 -165 0
-165 0 0 165 0 165 165 0 165 0 0 -165z m350 0 l0 -165 -165 0 -165 0 0 165 0
165 165 0 165 0 0 -165z m360 0 l0 -165 -170 0 -170 0 0 165 0 165 170 0 170
0 0 -165z m350 0 l0 -165 -165 0 -165 0 0 165 0 165 165 0 165 0 0 -165z m350
0 l0 -165 -165 0 -165 0 0 165 0 165 165 0 165 0 0 -165z m360 0 l0 -165 -165
0 -165 0 0 165 0 165 165 0 165 0 0 -165z m350 0 l0 -165 -165 0 -165 0 0 165
0 165 165 0 165 0 0 -165z m360 0 l0 -165 -165 0 -165 0 0 165 0 165 165 0
165 0 0 -165z m350 0 l0 -165 -165 0 -165 0 0 165 0 165 165 0 165 0 0 -165z
m360 0 l0 -165 -170 0 -170 0 0 165 0 165 170 0 170 0 0 -165z m350 0 l0 -165
-165 0 -165 0 0 165 0 165 165 0 165 0 0 -165z m360 0 l0 -165 -170 0 -170 0
0 165 0 165 170 0 170 0 0 -165z m350 0 l0 -165 -165 0 -165 0 0 165 0 165
165 0 165 0 0 -165z m350 0 l0 -165 -165 0 -165 0 0 165 0 165 165 0 165 0 0
-165z m360 0 l0 -165 -165 0 -165 0 0 165 0 165 165 0 165 0 0 -165z m350 0
l0 -165 -165 0 -165 0 0 165 0 165 165 0 165 0 0 -165z m360 0 l0 -165 -170 0
-170 0 0 165 0 165 170 0 170 0 0 -165z m350 0 l0 -165 -165 0 -165 0 0 165 0
165 165 0 165 0 0 -165z m360 0 l0 -165 -170 0 -170 0 0 165 0 165 170 0 170
0 0 -165z m350 0 l0 -165 -165 0 -165 0 0 165 0 165 165 0 165 0 0 -165z m350
0 l0 -165 -165 0 -165 0 0 165 0 165 165 0 165 0 0 -165z m360 0 l0 -165 -165
0 -165 0 0 165 0 165 165 0 165 0 0 -165z m350 0 l0 -165 -165 0 -165 0 0 165
0 165 165 0 165 0 0 -165z m360 0 l0 -165 -170 0 -170 0 0 165 0 165 170 0
170 0 0 -165z m350 0 l0 -165 -165 0 -165 0 0 165 0 165 165 0 165 0 0 -165z
m360 0 l0 -165 -170 0 -170 0 0 165 0 165 170 0 170 0 0 -165z m-9570 -360 l0
-165 -165 0 -165 0 0 165 0 165 165 0 165 0 0 -165z m350 0 l0 -165 -165 0
-165 0 0 165 0 165 165 0 165 0 0 -165z m360 0 l0 -165 -165 0 -165 0 0 165 0
165 165 0 165 0 0 -165z m350 0 l0 -165 -165 0 -165 0 0 165 0 165 165 0 165
0 0 -165z m358 3 l-3 -163 -165 0 -165 0 -3 163 -2 162 170 0 170 0 -2 -162z
m352 -3 l0 -165 -165 0 -165 0 0 165 0 165 165 0 165 0 0 -165z m350 0 l0
-165 -165 0 -165 0 0 165 0 165 165 0 165 0 0 -165z m360 0 l0 -165 -165 0
-165 0 0 165 0 165 165 0 165 0 0 -165z m350 0 l0 -165 -165 0 -165 0 0 165 0
165 165 0 165 0 0 -165z m360 0 l0 -165 -165 0 -165 0 0 165 0 165 165 0 165
0 0 -165z m350 0 l0 -165 -165 0 -165 0 0 165 0 165 165 0 165 0 0 -165z m360
0 l0 -165 -167 2 -168 3 -3 163 -2 162 170 0 170 0 0 -165z m350 0 l0 -165
-165 0 -165 0 0 165 0 165 165 0 165 0 0 -165z m358 3 l-3 -163 -167 -3 -168
-2 0 165 0 165 170 0 170 0 -2 -162z m352 -3 l0 -165 -165 0 -165 0 0 165 0
165 165 0 165 0 0 -165z m350 0 l0 -165 -165 0 -165 0 0 165 0 165 165 0 165
0 0 -165z m360 0 l0 -165 -165 0 -165 0 0 165 0 165 165 0 165 0 0 -165z m350
0 l0 -165 -165 0 -165 0 0 165 0 165 165 0 165 0 0 -165z m360 0 l0 -165 -167
2 -168 3 -3 163 -2 162 170 0 170 0 0 -165z m350 0 l0 -165 -165 0 -165 0 0
165 0 165 165 0 165 0 0 -165z m358 3 l-3 -163 -167 -3 -168 -2 0 165 0 165
170 0 170 0 -2 -162z m352 -3 l0 -165 -165 0 -165 0 0 165 0 165 165 0 165 0
0 -165z m350 0 l0 -165 -165 0 -165 0 0 165 0 165 165 0 165 0 0 -165z m360 0
l0 -165 -165 0 -165 0 0 165 0 165 165 0 165 0 0 -165z m350 0 l0 -165 -165 0
-165 0 0 165 0 165 165 0 165 0 0 -165z m360 0 l0 -165 -167 2 -168 3 -3 163
-2 162 170 0 170 0 0 -165z m350 0 l0 -165 -165 0 -165 0 0 165 0 165 165 0
165 0 0 -165z m358 3 l-3 -163 -167 -3 -168 -2 0 165 0 165 170 0 170 0 -2
-162z m-9568 -353 l0 -165 -165 0 -165 0 0 165 0 165 165 0 165 0 0 -165z
m350 0 l0 -165 -165 0 -165 0 0 165 0 165 165 0 165 0 0 -165z m360 0 l0 -165
-165 0 -165 0 0 165 0 165 165 0 165 0 0 -165z m350 0 l0 -165 -165 0 -165 0
0 165 0 165 165 0 165 0 0 -165z m360 0 l0 -165 -170 0 -170 0 0 165 0 165
170 0 170 0 0 -165z m350 0 l0 -165 -165 0 -165 0 0 165 0 165 165 0 165 0 0
-165z m350 0 l0 -165 -165 0 -165 0 0 165 0 165 165 0 165 0 0 -165z m360 0
l0 -165 -165 0 -165 0 0 165 0 165 165 0 165 0 0 -165z m350 0 l0 -165 -165 0
-165 0 0 165 0 165 165 0 165 0 0 -165z m360 0 l0 -165 -165 0 -165 0 0 165 0
165 165 0 165 0 0 -165z m350 0 l0 -165 -165 0 -165 0 0 165 0 165 165 0 165
0 0 -165z m360 0 l0 -165 -170 0 -170 0 0 165 0 165 170 0 170 0 0 -165z m350
0 l0 -165 -165 0 -165 0 0 165 0 165 165 0 165 0 0 -165z m360 0 l0 -165 -170
0 -170 0 0 165 0 165 170 0 170 0 0 -165z m350 0 l0 -165 -165 0 -165 0 0 165
0 165 165 0 165 0 0 -165z m350 0 l0 -165 -165 0 -165 0 0 165 0 165 165 0
165 0 0 -165z m360 0 l0 -165 -165 0 -165 0 0 165 0 165 165 0 165 0 0 -165z
m350 0 l0 -165 -165 0 -165 0 0 165 0 165 165 0 165 0 0 -165z m360 0 l0 -165
-170 0 -170 0 0 165 0 165 170 0 170 0 0 -165z m350 0 l0 -165 -165 0 -165 0
0 165 0 165 165 0 165 0 0 -165z m360 0 l0 -165 -170 0 -170 0 0 165 0 165
170 0 170 0 0 -165z m350 0 l0 -165 -165 0 -165 0 0 165 0 165 165 0 165 0 0
-165z m350 0 l0 -165 -165 0 -165 0 0 165 0 165 165 0 165 0 0 -165z m360 0
l0 -165 -165 0 -165 0 0 165 0 165 165 0 165 0 0 -165z m350 0 l0 -165 -165 0
-165 0 0 165 0 165 165 0 165 0 0 -165z m360 0 l0 -165 -170 0 -170 0 0 165 0
165 170 0 170 0 0 -165z m350 0 l0 -165 -165 0 -165 0 0 165 0 165 165 0 165
0 0 -165z m360 0 l0 -165 -170 0 -170 0 0 165 0 165 170 0 170 0 0 -165z
m-9570 -355 l0 -170 -165 0 -165 0 0 170 0 170 165 0 165 0 0 -170z m350 0 l0
-170 -165 0 -165 0 0 170 0 170 165 0 165 0 0 -170z m360 0 l0 -170 -165 0
-165 0 0 170 0 170 165 0 165 0 0 -170z m350 0 l0 -170 -165 0 -165 0 0 170 0
170 165 0 165 0 0 -170z m355 0 l0 -165 -165 0 -165 0 -3 155 c-1 85 0 160 3
167 3 11 40 13 167 11 l163 -3 0 -165z m355 0 l0 -170 -165 0 -165 0 0 170 0
170 165 0 165 0 0 -170z m350 0 l0 -170 -165 0 -165 0 0 170 0 170 165 0 165
0 0 -170z m360 0 l0 -170 -165 0 -165 0 0 170 0 170 165 0 165 0 0 -170z m350
0 l0 -170 -165 0 -165 0 0 170 0 170 165 0 165 0 0 -170z m360 0 l0 -170 -165
0 -165 0 0 170 0 170 165 0 165 0 0 -170z m350 0 l0 -170 -165 0 -165 0 0 170
0 170 165 0 165 0 0 -170z m360 0 l0 -170 -167 2 -168 3 -3 155 c-1 85 0 160
2 167 4 10 45 13 171 13 l165 0 0 -170z m350 0 l0 -170 -165 0 -165 0 0 170 0
170 165 0 165 0 0 -170z m355 0 l0 -165 -167 -3 -168 -2 0 170 0 170 168 -2
167 -3 0 -165z m355 0 l0 -170 -165 0 -165 0 0 170 0 170 165 0 165 0 0 -170z
m350 0 l0 -170 -165 0 -165 0 0 170 0 170 165 0 165 0 0 -170z m360 0 l0 -170
-165 0 -165 0 0 170 0 170 165 0 165 0 0 -170z m350 0 l0 -170 -165 0 -165 0
0 170 0 170 165 0 165 0 0 -170z m360 0 l0 -170 -167 2 -168 3 -3 155 c-1 85
0 160 2 167 4 10 45 13 171 13 l165 0 0 -170z m350 0 l0 -170 -165 0 -165 0 0
170 0 170 165 0 165 0 0 -170z m355 0 l0 -165 -167 -3 -168 -2 0 170 0 170
168 -2 167 -3 0 -165z m355 0 l0 -170 -165 0 -165 0 0 170 0 170 165 0 165 0
0 -170z m350 0 l0 -170 -165 0 -165 0 0 170 0 170 165 0 165 0 0 -170z m360 0
l0 -170 -165 0 -165 0 0 170 0 170 165 0 165 0 0 -170z m350 0 l0 -170 -165 0
-165 0 0 170 0 170 165 0 165 0 0 -170z m360 0 l0 -170 -167 2 -168 3 -3 155
c-1 85 0 160 2 167 4 10 45 13 171 13 l165 0 0 -170z m350 0 l0 -170 -165 0
-165 0 0 170 0 170 165 0 165 0 0 -170z m355 0 l0 -165 -167 -3 -168 -2 0 170
0 170 168 -2 167 -3 0 -165z m-9565 -355 l0 -165 -165 0 -165 0 0 165 0 165
165 0 165 0 0 -165z m350 0 l0 -165 -165 0 -165 0 0 165 0 165 165 0 165 0 0
-165z m360 0 l0 -165 -165 0 -165 0 0 165 0 165 165 0 165 0 0 -165z m350 0
l0 -165 -165 0 -165 0 0 165 0 165 165 0 165 0 0 -165z m360 0 l0 -165 -170 0
-170 0 0 165 0 165 170 0 170 0 0 -165z m350 0 l0 -165 -165 0 -165 0 0 165 0
165 165 0 165 0 0 -165z m350 0 l0 -165 -165 0 -165 0 0 165 0 165 165 0 165
0 0 -165z m360 0 l0 -165 -165 0 -165 0 0 165 0 165 165 0 165 0 0 -165z m350
0 l0 -165 -165 0 -165 0 0 165 0 165 165 0 165 0 0 -165z m360 0 l0 -165 -165
0 -165 0 0 165 0 165 165 0 165 0 0 -165z m350 0 l0 -165 -165 0 -165 0 0 165
0 165 165 0 165 0 0 -165z m360 0 l0 -165 -170 0 -170 0 0 165 0 165 170 0
170 0 0 -165z m350 0 l0 -165 -165 0 -165 0 0 165 0 165 165 0 165 0 0 -165z
m360 0 l0 -165 -170 0 -170 0 0 165 0 165 170 0 170 0 0 -165z m350 0 l0 -165
-165 0 -165 0 0 165 0 165 165 0 165 0 0 -165z m350 0 l0 -165 -165 0 -165 0
0 165 0 165 165 0 165 0 0 -165z m360 0 l0 -165 -165 0 -165 0 0 165 0 165
165 0 165 0 0 -165z m350 0 l0 -165 -165 0 -165 0 0 165 0 165 165 0 165 0 0
-165z m360 0 l0 -165 -170 0 -170 0 0 165 0 165 170 0 170 0 0 -165z m350 0
l0 -165 -165 0 -165 0 0 165 0 165 165 0 165 0 0 -165z m360 0 l0 -165 -170 0
-170 0 0 165 0 165 170 0 170 0 0 -165z m350 0 l0 -165 -165 0 -165 0 0 165 0
165 165 0 165 0 0 -165z m350 0 l0 -165 -165 0 -165 0 0 165 0 165 165 0 165
0 0 -165z m360 0 l0 -165 -165 0 -165 0 0 165 0 165 165 0 165 0 0 -165z m350
0 l0 -165 -165 0 -165 0 0 165 0 165 165 0 165 0 0 -165z m360 0 l0 -165 -170
0 -170 0 0 165 0 165 170 0 170 0 0 -165z m350 0 l0 -165 -165 0 -165 0 0 165
0 165 165 0 165 0 0 -165z m360 0 l0 -165 -170 0 -170 0 0 165 0 165 170 0
170 0 0 -165z m-9570 -350 l0 -165 -165 0 -165 0 0 165 0 165 165 0 165 0 0
-165z m350 0 l0 -165 -165 0 -165 0 0 165 0 165 165 0 165 0 0 -165z m360 0
l0 -165 -165 0 -165 0 0 165 0 165 165 0 165 0 0 -165z m350 0 l0 -165 -165 0
-165 0 0 165 0 165 165 0 165 0 0 -165z m358 -2 l2 -163 -170 0 -170 0 0 158
c0 87 3 162 7 166 4 3 79 5 167 4 l161 -3 3 -162z m352 2 l0 -165 -165 0 -165
0 0 165 0 165 165 0 165 0 0 -165z m350 0 l0 -165 -165 0 -165 0 0 165 0 165
165 0 165 0 0 -165z m360 0 l0 -165 -165 0 -165 0 0 165 0 165 165 0 165 0 0
-165z m350 0 l0 -165 -165 0 -165 0 0 165 0 165 165 0 165 0 0 -165z m360 0
l0 -165 -165 0 -165 0 0 165 0 165 165 0 165 0 0 -165z m350 0 l0 -165 -165 0
-165 0 0 165 0 165 165 0 165 0 0 -165z m360 0 l0 -165 -170 0 -170 0 0 158
c0 87 3 162 7 165 3 4 80 7 170 7 l163 0 0 -165z m350 0 l0 -165 -165 0 -165
0 0 165 0 165 165 0 165 0 0 -165z m358 -3 l2 -162 -170 0 -170 0 0 165 0 165
168 -2 167 -3 3 -163z m352 3 l0 -165 -165 0 -165 0 0 165 0 165 165 0 165 0
0 -165z m350 0 l0 -165 -165 0 -165 0 0 165 0 165 165 0 165 0 0 -165z m360 0
l0 -165 -165 0 -165 0 0 165 0 165 165 0 165 0 0 -165z m350 0 l0 -165 -165 0
-165 0 0 165 0 165 165 0 165 0 0 -165z m360 0 l0 -165 -170 0 -170 0 0 158
c0 87 3 162 7 165 3 4 80 7 170 7 l163 0 0 -165z m350 0 l0 -165 -165 0 -165
0 0 165 0 165 165 0 165 0 0 -165z m358 -3 l2 -162 -170 0 -170 0 0 165 0 165
168 -2 167 -3 3 -163z m352 3 l0 -165 -165 0 -165 0 0 165 0 165 165 0 165 0
0 -165z m350 0 l0 -165 -165 0 -165 0 0 165 0 165 165 0 165 0 0 -165z m360 0
l0 -165 -165 0 -165 0 0 165 0 165 165 0 165 0 0 -165z m350 0 l0 -165 -165 0
-165 0 0 165 0 165 165 0 165 0 0 -165z m360 0 l0 -165 -170 0 -170 0 0 158
c0 87 3 162 7 165 3 4 80 7 170 7 l163 0 0 -165z m350 0 l0 -165 -165 0 -165
0 0 165 0 165 165 0 165 0 0 -165z m358 -3 l2 -162 -170 0 -170 0 0 165 0 165
168 -2 167 -3 3 -163z"/>
</g>
<text id="c1-txt-x-0" x="8" y="240">0</text>
<text id="c1-txt-x-1" x="79" y="240">0</text>
<text id="c1-txt-x-2" x="150" y="240">0</text>
<text id="c1-txt-x-3" x="221" y="240">0</text>
<text id="c1-txt-x-4" x="292" y="240">0</text>
<text id="c1-txt-x-5" x="363" y="240">0</text>
<text id="c1-txt-x-6" x="434" y="240">0</text>
<text id="c1-txt-x-7" x="505" y="240">0</text>
<text id="c1-txt-x-8" x="576" y="240">0</text>
<text id="c1-txt-x-9" x="647" y="240">0</text>
<text id="c1-txt-x-10" x="718" y="240">0</text>
<text id="c1-txt-x-11" x="789" y="240">0</text>
<text id="c1-txt-x-12" x="860" y="240">0</text>
<text id="c1-txt-x-13" x="931" y="240">0</text>
<text id="c1-txt-x-14" x="1002" y="240">0</text>
</svg>
