<svg version="1.0" xmlns="http://www.w3.org/2000/svg"
 width="592pt" height="587pt" viewBox="0 0 602 647"
 preserveAspectRatio="xMidYMid meet">
<g transform="translate(30,597) scale(0.1,-0.1)" fill="#000000" stroke="none">
<path d="M77 5853 c-63 -4 -67 -5 -67 -28 0 -24 3 -25 65 -25 l65 0 0 -215 0
-215 -65 0 c-63 0 -65 -1 -65 -25 0 -24 2 -25 65 -25 l65 0 0 -210 0 -210 -65
0 c-63 0 -65 -1 -65 -25 0 -24 2 -25 65 -25 l65 0 0 -210 0 -210 -65 0 c-63 0
-65 -1 -65 -25 0 -24 2 -25 65 -25 l65 0 0 -210 0 -210 -65 0 c-63 0 -65 -1
-65 -25 0 -24 2 -25 65 -25 l65 0 0 -215 0 -215 -65 0 c-63 0 -65 -1 -65 -25
0 -24 2 -25 65 -25 l65 0 0 -210 0 -210 -65 0 c-63 0 -65 -1 -65 -25 0 -24 2
-25 65 -25 l65 0 0 -210 0 -210 -65 0 c-63 0 -65 -1 -65 -25 0 -24 2 -25 66
-25 l67 0 -7 -38 c-3 -20 -6 -115 -6 -209 l0 -173 -60 0 c-57 0 -60 -1 -60
-25 0 -24 3 -25 60 -25 l60 0 0 -215 0 -215 -60 0 c-57 0 -60 -1 -60 -25 0
-24 3 -25 60 -25 l60 0 0 -210 0 -210 -60 0 c-57 0 -60 -1 -60 -25 0 -24 3
-25 60 -25 l60 0 0 -210 0 -210 -60 0 c-57 0 -60 -1 -60 -25 0 -24 3 -25 60
-25 l60 0 0 -205 0 -205 -60 0 c-57 0 -60 -1 -60 -25 0 -24 2 -25 65 -25 l65
0 0 -65 c0 -63 1 -65 25 -65 24 0 25 3 25 60 l0 60 210 0 210 0 0 -60 c0 -57
1 -60 25 -60 24 0 25 3 25 60 l0 60 210 0 210 0 0 -60 c0 -57 1 -60 25 -60 24
0 25 3 25 60 l0 60 215 0 215 0 0 -60 c0 -57 1 -60 25 -60 24 0 25 3 25 60 l0
60 205 0 205 0 0 -60 c0 -57 1 -60 25 -60 24 0 25 3 25 60 l0 60 210 0 210 0
0 -60 c0 -57 1 -60 25 -60 24 0 25 3 25 60 l0 60 215 0 215 0 0 -60 c0 -57 1
-60 25 -60 24 0 25 3 25 60 l0 60 210 0 210 0 0 -60 c0 -57 1 -60 25 -60 24 0
25 3 25 60 l0 60 215 0 215 0 0 -60 c0 -57 1 -60 25 -60 24 0 25 3 25 60 l0
60 205 0 205 0 0 -60 c0 -57 1 -60 25 -60 24 0 25 3 25 60 l0 60 215 0 215 0
0 -60 c0 -57 1 -60 25 -60 24 0 25 3 25 60 l0 60 210 0 210 0 0 -60 c0 -57 1
-60 25 -60 24 0 25 3 25 60 l0 60 215 0 215 0 0 -60 c0 -57 1 -60 25 -60 24 0
25 3 25 60 l0 60 31 0 c26 0 30 3 27 23 -2 16 -11 23 -30 25 -27 3 -28 5 -28
62 0 32 -4 61 -9 65 -6 3 -9 1056 -8 2775 l2 2770 -2815 0 c-1548 0 -2831 2
-2850 4 -19 1 -65 1 -103 -1z m323 -133 l0 -110 -105 0 -105 0 0 95 0 95 55 0
c42 0 55 3 55 15 0 11 12 15 50 15 l50 0 0 -110z m238 3 l-3 -108 -112 -3
-113 -3 0 111 0 110 115 0 116 0 -3 -107z m232 -3 l0 -110 -110 0 -110 0 0
110 0 110 110 0 110 0 0 -110z m240 0 l0 -110 -115 0 -115 0 0 110 0 110 115
0 115 0 0 -110z m230 0 l0 -110 -110 0 -110 0 0 110 0 110 110 0 110 0 0 -110z
m240 0 l0 -110 -110 0 -110 0 0 110 0 110 110 0 110 0 0 -110z m238 3 l-3
-108 -112 -3 -113 -3 0 111 0 110 115 0 116 0 -3 -107z m232 -3 l0 -110 -110
0 -110 0 0 110 0 110 110 0 110 0 0 -110z m240 0 l0 -111 -112 3 -113 3 -3
108 -3 107 116 0 115 0 0 -110z m230 0 l0 -110 -110 0 -110 0 0 110 0 110 110
0 110 0 0 -110z m240 0 l0 -110 -110 0 -110 0 0 110 0 110 110 0 110 0 0 -110z
m240 0 l0 -110 -115 0 -115 0 0 110 0 110 115 0 115 0 0 -110z m230 0 l0 -110
-110 0 -110 0 0 110 0 110 110 0 110 0 0 -110z m240 0 l0 -110 -110 0 -110 0
0 110 0 110 110 0 110 0 0 -110z m238 3 l-3 -108 -112 -3 -113 -3 0 111 0 110
115 0 116 0 -3 -107z m232 -3 l0 -110 -110 0 -110 0 0 110 0 110 110 0 110 0
0 -110z m240 0 l0 -111 -112 3 -113 3 -3 108 -3 107 116 0 115 0 0 -110z m230
0 l0 -110 -110 0 -110 0 0 110 0 110 110 0 110 0 0 -110z m240 0 l0 -110 -110
0 -110 0 0 110 0 110 110 0 110 0 0 -110z m240 0 l0 -110 -115 0 -115 0 0 110
0 110 115 0 115 0 0 -110z m230 0 l0 -110 -110 0 -110 0 0 110 0 110 110 0
110 0 0 -110z m240 0 l0 -110 -110 0 -110 0 0 110 0 110 110 0 110 0 0 -110z
m238 3 l-3 -108 -112 -3 -113 -3 0 111 0 110 115 0 116 0 -3 -107z m232 -3 l0
-110 -110 0 -110 0 0 110 0 110 110 0 110 0 0 -110z m-5430 -235 l0 -115 -105
0 -105 0 0 115 0 115 105 0 105 0 0 -115z m235 0 l0 -110 -112 -3 -113 -3 0
116 0 116 113 -3 112 -3 0 -110z m235 0 l0 -115 -110 0 -110 0 0 115 0 115
110 0 110 0 0 -115z m235 0 l0 -110 -110 0 -110 0 -3 99 c-1 55 0 106 2 113 4
11 30 13 113 11 l108 -3 0 -110z m235 0 l0 -115 -110 0 -110 0 0 115 0 115
110 0 110 0 0 -115z m240 0 l0 -115 -110 0 -110 0 0 115 0 115 110 0 110 0 0
-115z m235 0 l0 -110 -112 -3 -113 -3 0 116 0 116 113 -3 112 -3 0 -110z m235
0 l0 -115 -110 0 -110 0 0 115 0 115 110 0 110 0 0 -115z m240 0 l0 -116 -112
3 -113 3 -3 99 c-1 55 0 106 2 113 4 10 33 13 116 13 l110 0 0 -115z m230 0
l0 -115 -110 0 -110 0 0 115 0 115 110 0 110 0 0 -115z m240 0 l0 -115 -110 0
-110 0 0 115 0 115 110 0 110 0 0 -115z m235 0 l0 -110 -110 0 -110 0 -3 99
c-1 55 0 106 2 113 4 11 30 13 113 11 l108 -3 0 -110z m235 0 l0 -115 -110 0
-110 0 0 115 0 115 110 0 110 0 0 -115z m240 0 l0 -115 -110 0 -110 0 0 115 0
115 110 0 110 0 0 -115z m235 0 l0 -110 -112 -3 -113 -3 0 116 0 116 113 -3
112 -3 0 -110z m235 0 l0 -115 -110 0 -110 0 0 115 0 115 110 0 110 0 0 -115z
m240 0 l0 -116 -112 3 -113 3 -3 99 c-1 55 0 106 2 113 4 10 33 13 116 13
l110 0 0 -115z m230 0 l0 -115 -110 0 -110 0 0 115 0 115 110 0 110 0 0 -115z
m240 0 l0 -115 -110 0 -110 0 0 115 0 115 110 0 110 0 0 -115z m235 0 l0 -110
-110 0 -110 0 -3 99 c-1 55 0 106 2 113 4 11 30 13 113 11 l108 -3 0 -110z
m235 0 l0 -115 -110 0 -110 0 0 115 0 115 110 0 110 0 0 -115z m240 0 l0 -115
-110 0 -110 0 0 115 0 115 110 0 110 0 0 -115z m235 0 l0 -110 -112 -3 -113
-3 0 116 0 116 113 -3 112 -3 0 -110z m235 0 l0 -115 -110 0 -110 0 0 115 0
115 110 0 110 0 0 -115z m-5430 -235 l0 -110 -105 0 -105 0 0 90 0 90 55 0
c48 0 55 2 55 20 0 17 7 20 50 20 l50 0 0 -110z m235 0 l0 -105 -112 -3 -113
-3 0 111 0 111 113 -3 112 -3 0 -105z m235 0 l0 -110 -110 0 -110 0 0 110 0
110 110 0 110 0 0 -110z m240 0 l0 -110 -115 0 -115 0 0 110 0 110 115 0 115
0 0 -110z m230 0 l0 -110 -110 0 -110 0 0 110 0 110 110 0 110 0 0 -110z m240
0 l0 -110 -110 0 -110 0 0 110 0 110 110 0 110 0 0 -110z m235 0 l0 -105 -112
-3 -113 -3 0 111 0 111 113 -3 112 -3 0 -105z m235 0 l0 -110 -110 0 -110 0 0
110 0 110 110 0 110 0 0 -110z m240 0 l0 -111 -112 3 -113 3 -3 94 c-1 52 -1
100 2 108 4 10 33 13 116 13 l110 0 0 -110z m230 0 l0 -110 -110 0 -110 0 0
110 0 110 110 0 110 0 0 -110z m240 0 l0 -110 -110 0 -110 0 0 110 0 110 110
0 110 0 0 -110z m240 0 l0 -110 -115 0 -115 0 0 110 0 110 115 0 115 0 0 -110z
m230 0 l0 -110 -110 0 -110 0 0 110 0 110 110 0 110 0 0 -110z m240 0 l0 -110
-110 0 -110 0 0 110 0 110 110 0 110 0 0 -110z m235 0 l0 -105 -112 -3 -113
-3 0 111 0 111 113 -3 112 -3 0 -105z m235 0 l0 -110 -110 0 -110 0 0 110 0
110 110 0 110 0 0 -110z m240 0 l0 -111 -112 3 -113 3 -3 94 c-1 52 -1 100 2
108 4 10 33 13 116 13 l110 0 0 -110z m230 0 l0 -110 -110 0 -110 0 0 110 0
110 110 0 110 0 0 -110z m240 0 l0 -110 -110 0 -110 0 0 110 0 110 110 0 110
0 0 -110z m240 0 l0 -110 -115 0 -115 0 0 110 0 110 115 0 115 0 0 -110z m230
0 l0 -110 -110 0 -110 0 0 110 0 110 110 0 110 0 0 -110z m240 0 l0 -110 -110
0 -110 0 0 110 0 110 110 0 110 0 0 -110z m235 0 l0 -105 -112 -3 -113 -3 0
111 0 111 113 -3 112 -3 0 -105z m235 0 l0 -110 -110 0 -110 0 0 110 0 110
110 0 110 0 0 -110z m-5430 -240 l0 -110 -105 0 -105 0 0 110 0 110 105 0 105
0 0 -110z m238 3 l-3 -108 -112 -3 -113 -3 0 111 0 110 115 0 116 0 -3 -107z
m232 -3 l0 -110 -110 0 -110 0 0 110 0 110 110 0 110 0 0 -110z m240 0 l0
-110 -115 0 -115 0 0 110 0 110 115 0 115 0 0 -110z m230 0 l0 -110 -110 0
-110 0 0 110 0 110 110 0 110 0 0 -110z m240 0 l0 -110 -110 0 -110 0 0 110 0
110 110 0 110 0 0 -110z m238 3 l-3 -108 -112 -3 -113 -3 0 111 0 110 115 0
116 0 -3 -107z m232 -3 l0 -110 -110 0 -110 0 0 110 0 110 110 0 110 0 0 -110z
m240 0 l0 -111 -112 3 -113 3 -3 108 -3 107 116 0 115 0 0 -110z m230 0 l0
-110 -110 0 -110 0 0 110 0 110 110 0 110 0 0 -110z m240 0 l0 -110 -110 0
-110 0 0 110 0 110 110 0 110 0 0 -110z m240 0 l0 -110 -115 0 -115 0 0 110 0
110 115 0 115 0 0 -110z m230 0 l0 -110 -110 0 -110 0 0 110 0 110 110 0 110
0 0 -110z m240 0 l0 -110 -110 0 -110 0 0 110 0 110 110 0 110 0 0 -110z m238
3 l-3 -108 -112 -3 -113 -3 0 111 0 110 115 0 116 0 -3 -107z m232 -3 l0 -110
-110 0 -110 0 0 110 0 110 110 0 110 0 0 -110z m240 0 l0 -111 -112 3 -113 3
-3 108 -3 107 116 0 115 0 0 -110z m230 0 l0 -110 -110 0 -110 0 0 110 0 110
110 0 110 0 0 -110z m240 0 l0 -110 -110 0 -110 0 0 110 0 110 110 0 110 0 0
-110z m240 0 l0 -110 -115 0 -115 0 0 110 0 110 115 0 115 0 0 -110z m230 0
l0 -110 -110 0 -110 0 0 110 0 110 110 0 110 0 0 -110z m240 0 l0 -110 -110 0
-110 0 0 110 0 110 110 0 110 0 0 -110z m238 3 l-3 -108 -112 -3 -113 -3 0
111 0 110 115 0 116 0 -3 -107z m232 -3 l0 -110 -110 0 -110 0 0 110 0 110
110 0 110 0 0 -110z m-5430 -230 l0 -110 -105 0 -105 0 0 90 0 90 55 0 c48 0
55 2 55 20 0 17 7 20 50 20 l50 0 0 -110z m238 -2 l3 -108 -116 0 -115 0 0
110 0 111 113 -3 112 -3 3 -107z m232 2 l0 -110 -110 0 -110 0 0 110 0 110
110 0 110 0 0 -110z m240 0 l0 -110 -115 0 -115 0 0 110 0 110 115 0 115 0 0
-110z m230 0 l0 -110 -110 0 -110 0 0 110 0 110 110 0 110 0 0 -110z m240 0
l0 -110 -110 0 -110 0 0 110 0 110 110 0 110 0 0 -110z m238 -2 l3 -108 -116
0 -115 0 0 110 0 111 113 -3 112 -3 3 -107z m232 2 l0 -110 -110 0 -110 0 0
110 0 110 110 0 110 0 0 -110z m240 0 l0 -110 -115 0 -115 0 0 103 c0 57 3
107 7 110 3 4 55 7 115 7 l108 0 0 -110z m230 0 l0 -110 -110 0 -110 0 0 110
0 110 110 0 110 0 0 -110z m240 0 l0 -110 -110 0 -110 0 0 110 0 110 110 0
110 0 0 -110z m240 0 l0 -110 -115 0 -115 0 0 110 0 110 115 0 115 0 0 -110z
m230 0 l0 -110 -110 0 -110 0 0 110 0 110 110 0 110 0 0 -110z m240 0 l0 -110
-110 0 -110 0 0 110 0 110 110 0 110 0 0 -110z m238 -2 l3 -108 -116 0 -115 0
0 110 0 111 113 -3 112 -3 3 -107z m232 2 l0 -110 -110 0 -110 0 0 110 0 110
110 0 110 0 0 -110z m240 0 l0 -110 -115 0 -115 0 0 103 c0 57 3 107 7 110 3
4 55 7 115 7 l108 0 0 -110z m230 0 l0 -110 -110 0 -110 0 0 110 0 110 110 0
110 0 0 -110z m240 0 l0 -110 -110 0 -110 0 0 110 0 110 110 0 110 0 0 -110z
m240 0 l0 -110 -115 0 -115 0 0 110 0 110 115 0 115 0 0 -110z m230 0 l0 -110
-110 0 -110 0 0 110 0 110 110 0 110 0 0 -110z m240 0 l0 -110 -110 0 -110 0
0 110 0 110 110 0 110 0 0 -110z m238 -2 l3 -108 -116 0 -115 0 0 110 0 111
113 -3 112 -3 3 -107z m232 2 l0 -110 -110 0 -110 0 0 110 0 110 110 0 110 0
0 -110z m-5430 -240 l0 -110 -105 0 -105 0 0 110 0 110 105 0 105 0 0 -110z
m235 0 l0 -105 -112 -3 -113 -3 0 111 0 111 113 -3 112 -3 0 -105z m235 0 l0
-110 -110 0 -110 0 0 110 0 110 110 0 110 0 0 -110z m240 0 l0 -110 -115 0
-115 0 0 110 0 110 115 0 115 0 0 -110z m230 0 l0 -110 -110 0 -110 0 0 110 0
110 110 0 110 0 0 -110z m240 0 l0 -110 -110 0 -110 0 0 110 0 110 110 0 110
0 0 -110z m235 0 l0 -105 -112 -3 -113 -3 0 111 0 111 113 -3 112 -3 0 -105z
m235 0 l0 -110 -110 0 -110 0 0 110 0 110 110 0 110 0 0 -110z m240 0 l0 -111
-112 3 -113 3 -3 94 c-1 52 -1 100 2 108 4 10 33 13 116 13 l110 0 0 -110z
m230 0 l0 -110 -110 0 -110 0 0 110 0 110 110 0 110 0 0 -110z m240 0 l0 -110
-110 0 -110 0 0 110 0 110 110 0 110 0 0 -110z m240 0 l0 -110 -115 0 -115 0
0 110 0 110 115 0 115 0 0 -110z m230 0 l0 -110 -110 0 -110 0 0 110 0 110
110 0 110 0 0 -110z m240 0 l0 -110 -110 0 -110 0 0 110 0 110 110 0 110 0 0
-110z m235 0 l0 -105 -112 -3 -113 -3 0 111 0 111 113 -3 112 -3 0 -105z m235
0 l0 -110 -110 0 -110 0 0 110 0 110 110 0 110 0 0 -110z m240 0 l0 -111 -112
3 -113 3 -3 94 c-1 52 -1 100 2 108 4 10 33 13 116 13 l110 0 0 -110z m230 0
l0 -110 -110 0 -110 0 0 110 0 110 110 0 110 0 0 -110z m240 0 l0 -110 -110 0
-110 0 0 110 0 110 110 0 110 0 0 -110z m240 0 l0 -110 -115 0 -115 0 0 110 0
110 115 0 115 0 0 -110z m230 0 l0 -110 -110 0 -110 0 0 110 0 110 110 0 110
0 0 -110z m240 0 l0 -110 -110 0 -110 0 0 110 0 110 110 0 110 0 0 -110z m235
0 l0 -105 -112 -3 -113 -3 0 111 0 111 113 -3 112 -3 0 -105z m235 0 l0 -110
-110 0 -110 0 0 110 0 110 110 0 110 0 0 -110z m-5430 -235 l0 -115 -105 0
-105 0 0 95 0 95 55 0 c48 0 55 2 55 20 0 17 7 20 50 20 l50 0 0 -115z m235 0
l0 -110 -112 -3 -113 -3 0 116 0 116 113 -3 112 -3 0 -110z m235 0 l0 -115
-110 0 -110 0 0 115 0 115 110 0 110 0 0 -115z m235 0 l0 -110 -110 0 -110 0
-3 99 c-1 55 0 106 2 113 4 11 30 13 113 11 l108 -3 0 -110z m235 0 l0 -115
-110 0 -110 0 0 115 0 115 110 0 110 0 0 -115z m240 0 l0 -115 -110 0 -110 0
0 115 0 115 110 0 110 0 0 -115z m235 0 l0 -110 -112 -3 -113 -3 0 116 0 116
113 -3 112 -3 0 -110z m235 0 l0 -115 -110 0 -110 0 0 115 0 115 110 0 110 0
0 -115z m240 0 l0 -116 -112 3 -113 3 -3 99 c-1 55 0 106 2 113 4 10 33 13
116 13 l110 0 0 -115z m230 0 l0 -115 -110 0 -110 0 0 115 0 115 110 0 110 0
0 -115z m240 0 l0 -115 -110 0 -110 0 0 115 0 115 110 0 110 0 0 -115z m235 0
l0 -110 -110 0 -110 0 -3 99 c-1 55 0 106 2 113 4 11 30 13 113 11 l108 -3 0
-110z m235 0 l0 -115 -110 0 -110 0 0 115 0 115 110 0 110 0 0 -115z m240 0
l0 -115 -110 0 -110 0 0 115 0 115 110 0 110 0 0 -115z m235 0 l0 -110 -112
-3 -113 -3 0 116 0 116 113 -3 112 -3 0 -110z m235 0 l0 -115 -110 0 -110 0 0
115 0 115 110 0 110 0 0 -115z m240 0 l0 -116 -112 3 -113 3 -3 99 c-1 55 0
106 2 113 4 10 33 13 116 13 l110 0 0 -115z m230 0 l0 -115 -110 0 -110 0 0
115 0 115 110 0 110 0 0 -115z m240 0 l0 -115 -110 0 -110 0 0 115 0 115 110
0 110 0 0 -115z m235 0 l0 -110 -110 0 -110 0 -3 99 c-1 55 0 106 2 113 4 11
30 13 113 11 l108 -3 0 -110z m235 0 l0 -115 -110 0 -110 0 0 115 0 115 110 0
110 0 0 -115z m240 0 l0 -115 -110 0 -110 0 0 115 0 115 110 0 110 0 0 -115z
m235 0 l0 -110 -112 -3 -113 -3 0 116 0 116 113 -3 112 -3 0 -110z m235 0 l0
-115 -110 0 -110 0 0 115 0 115 110 0 110 0 0 -115z m-5430 -235 l0 -110 -105
0 -105 0 0 110 0 110 105 0 105 0 0 -110z m238 -2 l3 -108 -116 0 -115 0 0
110 0 111 113 -3 112 -3 3 -107z m232 2 l0 -110 -110 0 -110 0 0 110 0 110
110 0 110 0 0 -110z m240 0 l0 -110 -115 0 -115 0 0 110 0 110 115 0 115 0 0
-110z m230 0 l0 -110 -110 0 -110 0 0 110 0 110 110 0 110 0 0 -110z m240 0
l0 -110 -110 0 -110 0 0 110 0 110 110 0 110 0 0 -110z m238 -2 l3 -108 -116
0 -115 0 0 110 0 111 113 -3 112 -3 3 -107z m232 2 l0 -110 -110 0 -110 0 0
110 0 110 110 0 110 0 0 -110z m240 0 l0 -110 -115 0 -115 0 0 103 c0 57 3
107 7 110 3 4 55 7 115 7 l108 0 0 -110z m230 0 l0 -110 -110 0 -110 0 0 110
0 110 110 0 110 0 0 -110z m240 0 l0 -110 -110 0 -110 0 0 110 0 110 110 0
110 0 0 -110z m240 0 l0 -110 -115 0 -115 0 0 110 0 110 115 0 115 0 0 -110z
m230 0 l0 -110 -110 0 -110 0 0 110 0 110 110 0 110 0 0 -110z m240 0 l0 -110
-110 0 -110 0 0 110 0 110 110 0 110 0 0 -110z m238 -2 l3 -108 -116 0 -115 0
0 110 0 111 113 -3 112 -3 3 -107z m232 2 l0 -110 -110 0 -110 0 0 110 0 110
110 0 110 0 0 -110z m240 0 l0 -110 -115 0 -115 0 0 103 c0 57 3 107 7 110 3
4 55 7 115 7 l108 0 0 -110z m230 0 l0 -110 -110 0 -110 0 0 110 0 110 110 0
110 0 0 -110z m240 0 l0 -110 -110 0 -110 0 0 110 0 110 110 0 110 0 0 -110z
m240 0 l0 -110 -115 0 -115 0 0 110 0 110 115 0 115 0 0 -110z m230 0 l0 -110
-110 0 -110 0 0 110 0 110 110 0 110 0 0 -110z m240 0 l0 -110 -110 0 -110 0
0 110 0 110 110 0 110 0 0 -110z m238 -2 l3 -108 -116 0 -115 0 0 110 0 111
113 -3 112 -3 3 -107z m232 2 l0 -110 -110 0 -110 0 0 110 0 110 110 0 110 0
0 -110z m-5430 -240 l0 -110 -105 0 -105 0 0 95 0 95 55 0 c42 0 55 3 55 15 0
11 12 15 50 15 l50 0 0 -110z m238 3 l-3 -108 -112 -3 -113 -3 0 111 0 110
115 0 116 0 -3 -107z m232 -3 l0 -110 -110 0 -110 0 0 110 0 110 110 0 110 0
0 -110z m240 0 l0 -110 -115 0 -115 0 0 110 0 110 115 0 115 0 0 -110z m230 0
l0 -110 -110 0 -110 0 0 110 0 110 110 0 110 0 0 -110z m240 0 l0 -110 -110 0
-110 0 0 110 0 110 110 0 110 0 0 -110z m238 3 l-3 -108 -112 -3 -113 -3 0
111 0 110 115 0 116 0 -3 -107z m232 -3 l0 -110 -110 0 -110 0 0 110 0 110
110 0 110 0 0 -110z m240 0 l0 -111 -112 3 -113 3 -3 108 -3 107 116 0 115 0
0 -110z m230 0 l0 -110 -110 0 -110 0 0 110 0 110 110 0 110 0 0 -110z m240 0
l0 -110 -110 0 -110 0 0 110 0 110 110 0 110 0 0 -110z m240 0 l0 -110 -115 0
-115 0 0 110 0 110 115 0 115 0 0 -110z m230 0 l0 -110 -110 0 -110 0 0 110 0
110 110 0 110 0 0 -110z m240 0 l0 -110 -110 0 -110 0 0 110 0 110 110 0 110
0 0 -110z m238 3 l-3 -108 -112 -3 -113 -3 0 111 0 110 115 0 116 0 -3 -107z
m232 -3 l0 -110 -110 0 -110 0 0 110 0 110 110 0 110 0 0 -110z m240 0 l0
-111 -112 3 -113 3 -3 108 -3 107 116 0 115 0 0 -110z m230 0 l0 -110 -110 0
-110 0 0 110 0 110 110 0 110 0 0 -110z m240 0 l0 -110 -110 0 -110 0 0 110 0
110 110 0 110 0 0 -110z m240 0 l0 -110 -115 0 -115 0 0 110 0 110 115 0 115
0 0 -110z m230 0 l0 -110 -110 0 -110 0 0 110 0 110 110 0 110 0 0 -110z m240
0 l0 -110 -110 0 -110 0 0 110 0 110 110 0 110 0 0 -110z m238 3 l-3 -108
-112 -3 -113 -3 0 111 0 110 115 0 116 0 -3 -107z m232 -3 l0 -110 -110 0
-110 0 0 110 0 110 110 0 110 0 0 -110z m-5430 -235 l0 -115 -105 0 -105 0 0
115 0 115 105 0 105 0 0 -115z m235 0 l0 -110 -112 -3 -113 -3 0 116 0 116
113 -3 112 -3 0 -110z m235 0 l0 -115 -110 0 -110 0 0 115 0 115 110 0 110 0
0 -115z m235 0 l0 -110 -110 0 -110 0 -3 99 c-1 55 0 106 2 113 4 11 30 13
113 11 l108 -3 0 -110z m235 0 l0 -115 -110 0 -110 0 0 115 0 115 110 0 110 0
0 -115z m240 0 l0 -115 -110 0 -110 0 0 115 0 115 110 0 110 0 0 -115z m235 0
l0 -110 -112 -3 -113 -3 0 116 0 116 113 -3 112 -3 0 -110z m235 0 l0 -115
-110 0 -110 0 0 115 0 115 110 0 110 0 0 -115z m240 0 l0 -116 -112 3 -113 3
-3 99 c-1 55 0 106 2 113 4 10 33 13 116 13 l110 0 0 -115z m230 0 l0 -115
-110 0 -110 0 0 115 0 115 110 0 110 0 0 -115z m240 0 l0 -115 -110 0 -110 0
0 115 0 115 110 0 110 0 0 -115z m235 0 l0 -110 -110 0 -110 0 -3 99 c-1 55 0
106 2 113 4 11 30 13 113 11 l108 -3 0 -110z m235 0 l0 -115 -110 0 -110 0 0
115 0 115 110 0 110 0 0 -115z m240 0 l0 -115 -110 0 -110 0 0 115 0 115 110
0 110 0 0 -115z m235 0 l0 -110 -112 -3 -113 -3 0 116 0 116 113 -3 112 -3 0
-110z m235 0 l0 -115 -110 0 -110 0 0 115 0 115 110 0 110 0 0 -115z m240 0
l0 -116 -112 3 -113 3 -3 99 c-1 55 0 106 2 113 4 10 33 13 116 13 l110 0 0
-115z m230 0 l0 -115 -110 0 -110 0 0 115 0 115 110 0 110 0 0 -115z m240 0
l0 -115 -110 0 -110 0 0 115 0 115 110 0 110 0 0 -115z m235 0 l0 -110 -110 0
-110 0 -3 99 c-1 55 0 106 2 113 4 11 30 13 113 11 l108 -3 0 -110z m235 0 l0
-115 -110 0 -110 0 0 115 0 115 110 0 110 0 0 -115z m240 0 l0 -115 -110 0
-110 0 0 115 0 115 110 0 110 0 0 -115z m235 0 l0 -110 -112 -3 -113 -3 0 116
0 116 113 -3 112 -3 0 -110z m235 0 l0 -115 -110 0 -110 0 0 115 0 115 110 0
110 0 0 -115z m-5430 -235 l0 -110 -105 0 -105 0 0 90 0 90 55 0 c48 0 55 2
55 20 0 17 7 20 50 20 l50 0 0 -110z m235 0 l0 -105 -112 -3 -113 -3 0 111 0
111 113 -3 112 -3 0 -105z m235 0 l0 -110 -110 0 -110 0 0 110 0 110 110 0
110 0 0 -110z m240 0 l0 -110 -115 0 -115 0 0 110 0 110 115 0 115 0 0 -110z
m230 0 l0 -110 -110 0 -110 0 0 110 0 110 110 0 110 0 0 -110z m240 0 l0 -110
-110 0 -110 0 0 110 0 110 110 0 110 0 0 -110z m235 0 l0 -105 -112 -3 -113
-3 0 111 0 111 113 -3 112 -3 0 -105z m235 0 l0 -110 -110 0 -110 0 0 110 0
110 110 0 110 0 0 -110z m240 0 l0 -111 -112 3 -113 3 -3 94 c-1 52 -1 100 2
108 4 10 33 13 116 13 l110 0 0 -110z m230 0 l0 -110 -110 0 -110 0 0 110 0
110 110 0 110 0 0 -110z m240 0 l0 -110 -110 0 -110 0 0 110 0 110 110 0 110
0 0 -110z m240 0 l0 -110 -115 0 -115 0 0 110 0 110 115 0 115 0 0 -110z m230
0 l0 -110 -110 0 -110 0 0 110 0 110 110 0 110 0 0 -110z m240 0 l0 -110 -110
0 -110 0 0 110 0 110 110 0 110 0 0 -110z m235 0 l0 -105 -112 -3 -113 -3 0
111 0 111 113 -3 112 -3 0 -105z m235 0 l0 -110 -110 0 -110 0 0 110 0 110
110 0 110 0 0 -110z m240 0 l0 -111 -112 3 -113 3 -3 94 c-1 52 -1 100 2 108
4 10 33 13 116 13 l110 0 0 -110z m230 0 l0 -110 -110 0 -110 0 0 110 0 110
110 0 110 0 0 -110z m240 0 l0 -110 -110 0 -110 0 0 110 0 110 110 0 110 0 0
-110z m240 0 l0 -110 -115 0 -115 0 0 110 0 110 115 0 115 0 0 -110z m230 0
l0 -110 -110 0 -110 0 0 110 0 110 110 0 110 0 0 -110z m240 0 l0 -110 -110 0
-110 0 0 110 0 110 110 0 110 0 0 -110z m235 0 l0 -105 -112 -3 -113 -3 0 111
0 111 113 -3 112 -3 0 -105z m235 0 l0 -110 -110 0 -110 0 0 110 0 110 110 0
110 0 0 -110z m-5430 -240 l0 -111 -107 3 -108 3 -3 75 c-2 41 0 90 3 108 l6
32 104 0 105 0 0 -110z m238 3 l-3 -108 -112 -3 -113 -3 0 111 0 110 115 0
116 0 -3 -107z m232 -3 l0 -110 -110 0 -110 0 0 110 0 110 110 0 110 0 0 -110z
m240 0 l0 -110 -115 0 -115 0 0 110 0 110 115 0 115 0 0 -110z m230 0 l0 -110
-110 0 -110 0 0 110 0 110 110 0 110 0 0 -110z m240 0 l0 -110 -110 0 -110 0
0 110 0 110 110 0 110 0 0 -110z m238 3 l-3 -108 -112 -3 -113 -3 0 111 0 110
115 0 116 0 -3 -107z m232 -3 l0 -110 -110 0 -110 0 0 110 0 110 110 0 110 0
0 -110z m240 0 l0 -111 -112 3 -113 3 -3 108 -3 107 116 0 115 0 0 -110z m230
0 l0 -110 -110 0 -110 0 0 110 0 110 110 0 110 0 0 -110z m240 0 l0 -110 -110
0 -110 0 0 110 0 110 110 0 110 0 0 -110z m240 0 l0 -110 -115 0 -115 0 0 110
0 110 115 0 115 0 0 -110z m230 0 l0 -110 -110 0 -110 0 0 110 0 110 110 0
110 0 0 -110z m240 0 l0 -110 -110 0 -110 0 0 110 0 110 110 0 110 0 0 -110z
m238 3 l-3 -108 -112 -3 -113 -3 0 111 0 110 115 0 116 0 -3 -107z m232 -3 l0
-110 -110 0 -110 0 0 110 0 110 110 0 110 0 0 -110z m240 0 l0 -111 -112 3
-113 3 -3 108 -3 107 116 0 115 0 0 -110z m230 0 l0 -110 -110 0 -110 0 0 110
0 110 110 0 110 0 0 -110z m240 0 l0 -110 -110 0 -110 0 0 110 0 110 110 0
110 0 0 -110z m240 0 l0 -110 -115 0 -115 0 0 110 0 110 115 0 115 0 0 -110z
m230 0 l0 -110 -110 0 -110 0 0 110 0 110 110 0 110 0 0 -110z m240 0 l0 -110
-110 0 -110 0 0 110 0 110 110 0 110 0 0 -110z m238 3 l-3 -108 -112 -3 -113
-3 0 111 0 110 115 0 116 0 -3 -107z m232 -3 l0 -110 -110 0 -110 0 0 110 0
110 110 0 110 0 0 -110z m-5430 -230 l0 -110 -110 0 -110 0 0 90 0 90 60 0
c53 0 60 2 60 20 0 17 7 20 50 20 l50 0 0 -110z m238 -2 l3 -108 -116 0 -115
0 0 110 0 111 113 -3 112 -3 3 -107z m232 2 l0 -110 -110 0 -110 0 0 110 0
110 110 0 110 0 0 -110z m240 0 l0 -110 -115 0 -115 0 0 110 0 110 115 0 115
0 0 -110z m230 0 l0 -110 -110 0 -110 0 0 110 0 110 110 0 110 0 0 -110z m240
0 l0 -110 -110 0 -110 0 0 110 0 110 110 0 110 0 0 -110z m238 -2 l3 -108
-116 0 -115 0 0 110 0 111 113 -3 112 -3 3 -107z m232 2 l0 -110 -110 0 -110
0 0 110 0 110 110 0 110 0 0 -110z m240 0 l0 -110 -115 0 -115 0 0 103 c0 57
3 107 7 110 3 4 55 7 115 7 l108 0 0 -110z m230 0 l0 -110 -110 0 -110 0 0
110 0 110 110 0 110 0 0 -110z m240 0 l0 -110 -110 0 -110 0 0 110 0 110 110
0 110 0 0 -110z m240 0 l0 -110 -115 0 -115 0 0 110 0 110 115 0 115 0 0 -110z
m230 0 l0 -110 -110 0 -110 0 0 110 0 110 110 0 110 0 0 -110z m240 0 l0 -110
-110 0 -110 0 0 110 0 110 110 0 110 0 0 -110z m238 -2 l3 -108 -116 0 -115 0
0 110 0 111 113 -3 112 -3 3 -107z m232 2 l0 -110 -110 0 -110 0 0 110 0 110
110 0 110 0 0 -110z m240 0 l0 -110 -115 0 -115 0 0 103 c0 57 3 107 7 110 3
4 55 7 115 7 l108 0 0 -110z m230 0 l0 -110 -110 0 -110 0 0 110 0 110 110 0
110 0 0 -110z m240 0 l0 -110 -110 0 -110 0 0 110 0 110 110 0 110 0 0 -110z
m240 0 l0 -110 -115 0 -115 0 0 110 0 110 115 0 115 0 0 -110z m230 0 l0 -110
-110 0 -110 0 0 110 0 110 110 0 110 0 0 -110z m240 0 l0 -110 -110 0 -110 0
0 110 0 110 110 0 110 0 0 -110z m238 -2 l3 -108 -116 0 -115 0 0 110 0 111
113 -3 112 -3 3 -107z m232 2 l0 -110 -110 0 -110 0 0 110 0 110 110 0 110 0
0 -110z m-5430 -240 l0 -111 -107 3 -108 3 -3 94 c-1 52 -1 100 2 108 4 10 32
13 111 13 l105 0 0 -110z m235 0 l0 -105 -112 -3 -113 -3 0 111 0 111 113 -3
112 -3 0 -105z m235 0 l0 -110 -110 0 -110 0 0 110 0 110 110 0 110 0 0 -110z
m240 0 l0 -110 -115 0 -115 0 0 110 0 110 115 0 115 0 0 -110z m230 0 l0 -110
-110 0 -110 0 0 110 0 110 110 0 110 0 0 -110z m240 0 l0 -110 -110 0 -110 0
0 110 0 110 110 0 110 0 0 -110z m235 0 l0 -105 -112 -3 -113 -3 0 111 0 111
113 -3 112 -3 0 -105z m235 0 l0 -110 -110 0 -110 0 0 110 0 110 110 0 110 0
0 -110z m240 0 l0 -111 -112 3 -113 3 -3 94 c-1 52 -1 100 2 108 4 10 33 13
116 13 l110 0 0 -110z m230 0 l0 -110 -110 0 -110 0 0 110 0 110 110 0 110 0
0 -110z m240 0 l0 -110 -110 0 -110 0 0 110 0 110 110 0 110 0 0 -110z m240 0
l0 -110 -115 0 -115 0 0 110 0 110 115 0 115 0 0 -110z m230 0 l0 -110 -110 0
-110 0 0 110 0 110 110 0 110 0 0 -110z m240 0 l0 -110 -110 0 -110 0 0 110 0
110 110 0 110 0 0 -110z m235 0 l0 -105 -112 -3 -113 -3 0 111 0 111 113 -3
112 -3 0 -105z m235 0 l0 -110 -110 0 -110 0 0 110 0 110 110 0 110 0 0 -110z
m240 0 l0 -111 -112 3 -113 3 -3 94 c-1 52 -1 100 2 108 4 10 33 13 116 13
l110 0 0 -110z m230 0 l0 -110 -110 0 -110 0 0 110 0 110 110 0 110 0 0 -110z
m240 0 l0 -110 -110 0 -110 0 0 110 0 110 110 0 110 0 0 -110z m240 0 l0 -110
-115 0 -115 0 0 110 0 110 115 0 115 0 0 -110z m230 0 l0 -110 -110 0 -110 0
0 110 0 110 110 0 110 0 0 -110z m240 0 l0 -110 -110 0 -110 0 0 110 0 110
110 0 110 0 0 -110z m235 0 l0 -105 -112 -3 -113 -3 0 111 0 111 113 -3 112
-3 0 -105z m235 0 l0 -110 -110 0 -110 0 0 110 0 110 110 0 110 0 0 -110z
m-5430 -235 l0 -116 -107 3 -108 3 -3 93 -3 92 61 0 c53 0 60 2 60 20 0 17 7
20 50 20 l50 0 0 -115z m235 0 l0 -110 -112 -3 -113 -3 0 116 0 116 113 -3
112 -3 0 -110z m235 0 l0 -115 -110 0 -110 0 0 115 0 115 110 0 110 0 0 -115z
m235 0 l0 -110 -110 0 -110 0 -3 99 c-1 55 0 106 2 113 4 11 30 13 113 11
l108 -3 0 -110z m235 0 l0 -115 -110 0 -110 0 0 115 0 115 110 0 110 0 0 -115z
m240 0 l0 -115 -110 0 -110 0 0 115 0 115 110 0 110 0 0 -115z m235 0 l0 -110
-112 -3 -113 -3 0 116 0 116 113 -3 112 -3 0 -110z m235 0 l0 -115 -110 0
-110 0 0 115 0 115 110 0 110 0 0 -115z m240 0 l0 -116 -112 3 -113 3 -3 99
c-1 55 0 106 2 113 4 10 33 13 116 13 l110 0 0 -115z m230 0 l0 -115 -110 0
-110 0 0 115 0 115 110 0 110 0 0 -115z m240 0 l0 -115 -110 0 -110 0 0 115 0
115 110 0 110 0 0 -115z m235 0 l0 -110 -110 0 -110 0 -3 99 c-1 55 0 106 2
113 4 11 30 13 113 11 l108 -3 0 -110z m235 0 l0 -115 -110 0 -110 0 0 115 0
115 110 0 110 0 0 -115z m240 0 l0 -115 -110 0 -110 0 0 115 0 115 110 0 110
0 0 -115z m235 0 l0 -110 -112 -3 -113 -3 0 116 0 116 113 -3 112 -3 0 -110z
m235 0 l0 -115 -110 0 -110 0 0 115 0 115 110 0 110 0 0 -115z m240 0 l0 -116
-112 3 -113 3 -3 99 c-1 55 0 106 2 113 4 10 33 13 116 13 l110 0 0 -115z
m230 0 l0 -115 -110 0 -110 0 0 115 0 115 110 0 110 0 0 -115z m240 0 l0 -115
-110 0 -110 0 0 115 0 115 110 0 110 0 0 -115z m235 0 l0 -110 -110 0 -110 0
-3 99 c-1 55 0 106 2 113 4 11 30 13 113 11 l108 -3 0 -110z m235 0 l0 -115
-110 0 -110 0 0 115 0 115 110 0 110 0 0 -115z m240 0 l0 -115 -110 0 -110 0
0 115 0 115 110 0 110 0 0 -115z m235 0 l0 -110 -112 -3 -113 -3 0 116 0 116
113 -3 112 -3 0 -110z m235 0 l0 -115 -110 0 -110 0 0 115 0 115 110 0 110 0
0 -115z m-5430 -235 l0 -110 -110 0 -110 0 0 110 0 110 110 0 110 0 0 -110z
m238 -2 l3 -108 -116 0 -115 0 0 110 0 111 113 -3 112 -3 3 -107z m232 2 l0
-110 -110 0 -110 0 0 110 0 110 110 0 110 0 0 -110z m240 0 l0 -110 -115 0
-115 0 0 110 0 110 115 0 115 0 0 -110z m230 0 l0 -110 -110 0 -110 0 0 110 0
110 110 0 110 0 0 -110z m240 0 l0 -110 -110 0 -110 0 0 110 0 110 110 0 110
0 0 -110z m238 -2 l3 -108 -116 0 -115 0 0 110 0 111 113 -3 112 -3 3 -107z
m232 2 l0 -110 -110 0 -110 0 0 110 0 110 110 0 110 0 0 -110z m240 0 l0 -110
-115 0 -115 0 0 103 c0 57 3 107 7 110 3 4 55 7 115 7 l108 0 0 -110z m230 0
l0 -110 -110 0 -110 0 0 110 0 110 110 0 110 0 0 -110z m240 0 l0 -110 -110 0
-110 0 0 110 0 110 110 0 110 0 0 -110z m240 0 l0 -110 -115 0 -115 0 0 110 0
110 115 0 115 0 0 -110z m230 0 l0 -110 -110 0 -110 0 0 110 0 110 110 0 110
0 0 -110z m240 0 l0 -110 -110 0 -110 0 0 110 0 110 110 0 110 0 0 -110z m238
-2 l3 -108 -116 0 -115 0 0 110 0 111 113 -3 112 -3 3 -107z m232 2 l0 -110
-110 0 -110 0 0 110 0 110 110 0 110 0 0 -110z m240 0 l0 -110 -115 0 -115 0
0 103 c0 57 3 107 7 110 3 4 55 7 115 7 l108 0 0 -110z m230 0 l0 -110 -110 0
-110 0 0 110 0 110 110 0 110 0 0 -110z m240 0 l0 -110 -110 0 -110 0 0 110 0
110 110 0 110 0 0 -110z m240 0 l0 -110 -115 0 -115 0 0 110 0 110 115 0 115
0 0 -110z m230 0 l0 -110 -110 0 -110 0 0 110 0 110 110 0 110 0 0 -110z m240
0 l0 -110 -110 0 -110 0 0 110 0 110 110 0 110 0 0 -110z m238 -2 l3 -108
-116 0 -115 0 0 110 0 111 113 -3 112 -3 3 -107z m232 2 l0 -110 -110 0 -110
0 0 110 0 110 110 0 110 0 0 -110z m-5430 -240 l0 -111 -107 3 -108 3 -3 93
-3 92 61 0 c47 0 60 3 60 15 0 11 12 15 50 15 l50 0 0 -110z m238 3 l-3 -108
-112 -3 -113 -3 0 111 0 110 115 0 116 0 -3 -107z m232 -3 l0 -110 -110 0
-110 0 0 110 0 110 110 0 110 0 0 -110z m240 0 l0 -110 -115 0 -115 0 0 110 0
110 115 0 115 0 0 -110z m230 0 l0 -110 -110 0 -110 0 0 110 0 110 110 0 110
0 0 -110z m240 0 l0 -110 -110 0 -110 0 0 110 0 110 110 0 110 0 0 -110z m238
3 l-3 -108 -112 -3 -113 -3 0 111 0 110 115 0 116 0 -3 -107z m232 -3 l0 -110
-110 0 -110 0 0 110 0 110 110 0 110 0 0 -110z m240 0 l0 -111 -112 3 -113 3
-3 108 -3 107 116 0 115 0 0 -110z m230 0 l0 -110 -110 0 -110 0 0 110 0 110
110 0 110 0 0 -110z m240 0 l0 -110 -110 0 -110 0 0 110 0 110 110 0 110 0 0
-110z m240 0 l0 -110 -115 0 -115 0 0 110 0 110 115 0 115 0 0 -110z m230 0
l0 -110 -110 0 -110 0 0 110 0 110 110 0 110 0 0 -110z m240 0 l0 -110 -110 0
-110 0 0 110 0 110 110 0 110 0 0 -110z m238 3 l-3 -108 -112 -3 -113 -3 0
111 0 110 115 0 116 0 -3 -107z m232 -3 l0 -110 -110 0 -110 0 0 110 0 110
110 0 110 0 0 -110z m240 0 l0 -111 -112 3 -113 3 -3 108 -3 107 116 0 115 0
0 -110z m230 0 l0 -110 -110 0 -110 0 0 110 0 110 110 0 110 0 0 -110z m240 0
l0 -110 -110 0 -110 0 0 110 0 110 110 0 110 0 0 -110z m240 0 l0 -110 -115 0
-115 0 0 110 0 110 115 0 115 0 0 -110z m230 0 l0 -110 -110 0 -110 0 0 110 0
110 110 0 110 0 0 -110z m240 0 l0 -110 -110 0 -110 0 0 110 0 110 110 0 110
0 0 -110z m238 3 l-3 -108 -112 -3 -113 -3 0 111 0 110 115 0 116 0 -3 -107z
m232 -3 l0 -110 -110 0 -110 0 0 110 0 110 110 0 110 0 0 -110z m-5430 -235
l0 -116 -107 3 -108 3 -3 99 c-1 55 0 106 2 113 4 10 33 13 111 13 l105 0 0
-115z m235 0 l0 -110 -112 -3 -113 -3 0 116 0 116 113 -3 112 -3 0 -110z m235
0 l0 -115 -110 0 -110 0 0 115 0 115 110 0 110 0 0 -115z m238 3 l-3 -113
-110 0 -110 0 -3 113 -3 112 116 0 116 0 -3 -112z m232 -3 l0 -115 -110 0
-110 0 0 115 0 115 110 0 110 0 0 -115z m240 0 l0 -115 -110 0 -110 0 0 115 0
115 110 0 110 0 0 -115z m235 0 l0 -110 -112 -3 -113 -3 0 116 0 116 113 -3
112 -3 0 -110z m235 0 l0 -115 -110 0 -110 0 0 115 0 115 110 0 110 0 0 -115z
m240 0 l0 -116 -112 3 -113 3 -3 99 c-1 55 0 106 2 113 4 10 33 13 116 13
l110 0 0 -115z m230 0 l0 -115 -110 0 -110 0 0 115 0 115 110 0 110 0 0 -115z
m240 0 l0 -115 -110 0 -110 0 0 115 0 115 110 0 110 0 0 -115z m238 3 l-3
-113 -110 0 -110 0 -3 113 -3 112 116 0 116 0 -3 -112z m232 -3 l0 -115 -110
0 -110 0 0 115 0 115 110 0 110 0 0 -115z m240 0 l0 -115 -110 0 -110 0 0 115
0 115 110 0 110 0 0 -115z m235 0 l0 -110 -112 -3 -113 -3 0 116 0 116 113 -3
112 -3 0 -110z m235 0 l0 -115 -110 0 -110 0 0 115 0 115 110 0 110 0 0 -115z
m240 0 l0 -116 -112 3 -113 3 -3 99 c-1 55 0 106 2 113 4 10 33 13 116 13
l110 0 0 -115z m230 0 l0 -115 -110 0 -110 0 0 115 0 115 110 0 110 0 0 -115z
m240 0 l0 -115 -110 0 -110 0 0 115 0 115 110 0 110 0 0 -115z m238 3 l-3
-113 -110 0 -110 0 -3 113 -3 112 116 0 116 0 -3 -112z m232 -3 l0 -115 -110
0 -110 0 0 115 0 115 110 0 110 0 0 -115z m240 0 l0 -115 -110 0 -110 0 0 115
0 115 110 0 110 0 0 -115z m235 0 l0 -110 -112 -3 -113 -3 0 116 0 116 113 -3
112 -3 0 -110z m235 0 l0 -115 -110 0 -110 0 0 115 0 115 110 0 110 0 0 -115z
m-5430 -235 l0 -110 -110 0 -110 0 0 90 0 90 60 0 c53 0 60 2 60 20 0 17 7 20
50 20 l50 0 0 -110z m235 0 l0 -105 -112 -3 -113 -3 0 111 0 111 113 -3 112
-3 0 -105z m235 0 l0 -110 -110 0 -110 0 0 110 0 110 110 0 110 0 0 -110z
m240 0 l0 -110 -115 0 -115 0 0 110 0 110 115 0 115 0 0 -110z m230 0 l0 -110
-110 0 -110 0 0 110 0 110 110 0 110 0 0 -110z m240 0 l0 -110 -110 0 -110 0
0 110 0 110 110 0 110 0 0 -110z m235 0 l0 -105 -112 -3 -113 -3 0 111 0 111
113 -3 112 -3 0 -105z m235 0 l0 -110 -110 0 -110 0 0 110 0 110 110 0 110 0
0 -110z m240 0 l0 -111 -112 3 -113 3 -3 94 c-1 52 -1 100 2 108 4 10 33 13
116 13 l110 0 0 -110z m230 0 l0 -110 -110 0 -110 0 0 110 0 110 110 0 110 0
0 -110z m240 0 l0 -110 -110 0 -110 0 0 110 0 110 110 0 110 0 0 -110z m240 0
l0 -110 -115 0 -115 0 0 110 0 110 115 0 115 0 0 -110z m230 0 l0 -110 -110 0
-110 0 0 110 0 110 110 0 110 0 0 -110z m240 0 l0 -110 -110 0 -110 0 0 110 0
110 110 0 110 0 0 -110z m235 0 l0 -105 -112 -3 -113 -3 0 111 0 111 113 -3
112 -3 0 -105z m235 0 l0 -110 -110 0 -110 0 0 110 0 110 110 0 110 0 0 -110z
m240 0 l0 -111 -112 3 -113 3 -3 94 c-1 52 -1 100 2 108 4 10 33 13 116 13
l110 0 0 -110z m230 0 l0 -110 -110 0 -110 0 0 110 0 110 110 0 110 0 0 -110z
m240 0 l0 -110 -110 0 -110 0 0 110 0 110 110 0 110 0 0 -110z m240 0 l0 -110
-115 0 -115 0 0 110 0 110 115 0 115 0 0 -110z m230 0 l0 -110 -110 0 -110 0
0 110 0 110 110 0 110 0 0 -110z m240 0 l0 -110 -110 0 -110 0 0 110 0 110
110 0 110 0 0 -110z m235 0 l0 -105 -112 -3 -113 -3 0 111 0 111 113 -3 112
-3 0 -105z m235 0 l0 -110 -110 0 -110 0 0 110 0 110 110 0 110 0 0 -110z
m-5430 -235 l0 -115 -110 0 -110 0 0 108 c0 60 3 112 7 115 3 4 53 7 110 7
l103 0 0 -115z m235 0 l0 -110 -112 -3 -113 -3 0 116 0 116 113 -3 112 -3 0
-110z m235 0 l0 -115 -110 0 -110 0 0 115 0 115 110 0 110 0 0 -115z m238 -2
l3 -113 -116 0 -115 0 0 108 c0 60 3 112 7 116 4 3 54 5 112 4 l106 -3 3 -112z
m232 2 l0 -115 -110 0 -110 0 0 115 0 115 110 0 110 0 0 -115z m240 0 l0 -115
-110 0 -110 0 0 115 0 115 110 0 110 0 0 -115z m235 0 l0 -110 -112 -3 -113
-3 0 116 0 116 113 -3 112 -3 0 -110z m235 0 l0 -115 -110 0 -110 0 0 115 0
115 110 0 110 0 0 -115z m240 0 l0 -116 -112 3 -113 3 -3 90 c-5 142 -11 135
118 135 l110 0 0 -115z m230 0 l0 -115 -110 0 -110 0 0 115 0 115 110 0 110 0
0 -115z m240 0 l0 -115 -110 0 -110 0 0 115 0 115 110 0 110 0 0 -115z m238
-2 l3 -113 -116 0 -115 0 0 108 c0 60 3 112 7 116 4 3 54 5 112 4 l106 -3 3
-112z m232 2 l0 -115 -110 0 -110 0 0 115 0 115 110 0 110 0 0 -115z m240 0
l0 -115 -110 0 -110 0 0 115 0 115 110 0 110 0 0 -115z m235 0 l0 -110 -112
-3 -113 -3 0 116 0 116 113 -3 112 -3 0 -110z m235 0 l0 -115 -110 0 -110 0 0
115 0 115 110 0 110 0 0 -115z m240 0 l0 -116 -112 3 -113 3 -3 99 c-1 55 0
106 2 113 4 10 33 13 116 13 l110 0 0 -115z m230 0 l0 -115 -110 0 -110 0 0
115 0 115 110 0 110 0 0 -115z m240 0 l0 -115 -110 0 -110 0 0 115 0 115 110
0 110 0 0 -115z m238 -2 l3 -113 -116 0 -115 0 0 108 c0 60 3 112 7 116 4 3
54 5 112 4 l106 -3 3 -112z m232 2 l0 -115 -110 0 -110 0 0 115 0 115 110 0
110 0 0 -115z m240 0 l0 -115 -110 0 -110 0 0 115 0 115 110 0 110 0 0 -115z
m235 0 l0 -110 -112 -3 -113 -3 0 116 0 116 113 -3 112 -3 0 -110z m235 0 l0
-115 -110 0 -110 0 0 115 0 115 110 0 110 0 0 -115z m-5430 -235 l0 -110 -110
0 -110 0 0 90 0 90 60 0 c53 0 60 2 60 20 0 17 7 20 50 20 l50 0 0 -110z m238
-2 l3 -108 -116 0 -115 0 0 110 0 111 113 -3 112 -3 3 -107z m232 2 l0 -110
-110 0 -110 0 0 110 0 110 110 0 110 0 0 -110z m240 0 l0 -110 -115 0 -115 0
0 110 0 110 115 0 115 0 0 -110z m230 0 l0 -110 -110 0 -110 0 0 110 0 110
110 0 110 0 0 -110z m240 0 l0 -110 -110 0 -110 0 0 110 0 110 110 0 110 0 0
-110z m238 -2 l3 -108 -116 0 -115 0 0 110 0 111 113 -3 112 -3 3 -107z m232
2 l0 -110 -110 0 -110 0 0 110 0 110 110 0 110 0 0 -110z m240 0 l0 -110 -115
0 -115 0 0 103 c0 57 3 107 7 110 3 4 55 7 115 7 l108 0 0 -110z m230 0 l0
-110 -110 0 -110 0 0 110 0 110 110 0 110 0 0 -110z m240 0 l0 -110 -110 0
-110 0 0 110 0 110 110 0 110 0 0 -110z m240 0 l0 -110 -115 0 -115 0 0 110 0
110 115 0 115 0 0 -110z m230 0 l0 -110 -110 0 -110 0 0 110 0 110 110 0 110
0 0 -110z m240 0 l0 -110 -110 0 -110 0 0 110 0 110 110 0 110 0 0 -110z m238
-2 l3 -108 -116 0 -115 0 0 110 0 111 113 -3 112 -3 3 -107z m232 2 l0 -110
-110 0 -110 0 0 110 0 110 110 0 110 0 0 -110z m240 0 l0 -110 -115 0 -115 0
0 103 c0 57 3 107 7 110 3 4 55 7 115 7 l108 0 0 -110z m230 0 l0 -110 -110 0
-110 0 0 110 0 110 110 0 110 0 0 -110z m240 0 l0 -110 -110 0 -110 0 0 110 0
110 110 0 110 0 0 -110z m240 0 l0 -110 -115 0 -115 0 0 110 0 110 115 0 115
0 0 -110z m230 0 l0 -110 -110 0 -110 0 0 110 0 110 110 0 110 0 0 -110z m240
0 l0 -110 -110 0 -110 0 0 110 0 110 110 0 110 0 0 -110z m238 -2 l3 -108
-116 0 -115 0 0 110 0 111 113 -3 112 -3 3 -107z m232 2 l0 -110 -110 0 -110
0 0 110 0 110 110 0 110 0 0 -110z m-5430 -240 l0 -110 -110 0 -110 0 0 110 0
110 110 0 110 0 0 -110z m238 3 l-3 -108 -112 -3 -113 -3 0 111 0 110 115 0
116 0 -3 -107z m232 -3 l0 -110 -110 0 -110 0 0 110 0 110 110 0 110 0 0 -110z
m240 0 l0 -110 -115 0 -115 0 0 110 0 110 115 0 115 0 0 -110z m230 0 l0 -110
-110 0 -110 0 0 110 0 110 110 0 110 0 0 -110z m240 0 l0 -110 -110 0 -110 0
0 110 0 110 110 0 110 0 0 -110z m238 3 l-3 -108 -112 -3 -113 -3 0 111 0 110
115 0 116 0 -3 -107z m232 -3 l0 -110 -110 0 -110 0 0 110 0 110 110 0 110 0
0 -110z m240 0 l0 -111 -112 3 -113 3 -3 108 -3 107 116 0 115 0 0 -110z m230
0 l0 -110 -110 0 -110 0 0 110 0 110 110 0 110 0 0 -110z m240 0 l0 -110 -110
0 -110 0 0 110 0 110 110 0 110 0 0 -110z m240 0 l0 -110 -115 0 -115 0 0 110
0 110 115 0 115 0 0 -110z m230 0 l0 -110 -110 0 -110 0 0 110 0 110 110 0
110 0 0 -110z m240 0 l0 -110 -110 0 -110 0 0 110 0 110 110 0 110 0 0 -110z
m238 3 l-3 -108 -112 -3 -113 -3 0 111 0 110 115 0 116 0 -3 -107z m232 -3 l0
-110 -110 0 -110 0 0 110 0 110 110 0 110 0 0 -110z m240 0 l0 -111 -112 3
-113 3 -3 108 -3 107 116 0 115 0 0 -110z m230 0 l0 -110 -110 0 -110 0 0 110
0 110 110 0 110 0 0 -110z m240 0 l0 -110 -110 0 -110 0 0 110 0 110 110 0
110 0 0 -110z m240 0 l0 -110 -115 0 -115 0 0 110 0 110 115 0 115 0 0 -110z
m230 0 l0 -110 -110 0 -110 0 0 110 0 110 110 0 110 0 0 -110z m240 0 l0 -110
-110 0 -110 0 0 110 0 110 110 0 110 0 0 -110z m238 3 l-3 -108 -112 -3 -113
-3 0 111 0 110 115 0 116 0 -3 -107z m232 -3 l0 -110 -110 0 -110 0 0 110 0
110 110 0 110 0 0 -110z m-5430 -235 l0 -115 -110 0 -110 0 0 95 0 95 60 0
c53 0 60 2 60 20 0 17 7 20 50 20 l50 0 0 -115z m235 0 l0 -110 -112 -3 -113
-3 0 116 0 116 113 -3 112 -3 0 -110z m235 0 l0 -115 -110 0 -110 0 0 115 0
115 110 0 110 0 0 -115z m235 0 l0 -110 -110 0 -110 0 -3 99 c-1 55 0 106 2
113 4 11 30 13 113 11 l108 -3 0 -110z m235 0 l0 -115 -110 0 -110 0 0 115 0
115 110 0 110 0 0 -115z m240 0 l0 -115 -110 0 -110 0 0 115 0 115 110 0 110
0 0 -115z m235 0 l0 -110 -112 -3 -113 -3 0 116 0 116 113 -3 112 -3 0 -110z
m235 0 l0 -115 -110 0 -110 0 0 115 0 115 110 0 110 0 0 -115z m240 0 l0 -116
-112 3 -113 3 -3 99 c-1 55 0 106 2 113 4 10 33 13 116 13 l110 0 0 -115z
m230 0 l0 -115 -110 0 -110 0 0 115 0 115 110 0 110 0 0 -115z m240 0 l0 -115
-110 0 -110 0 0 115 0 115 110 0 110 0 0 -115z m235 0 l0 -110 -110 0 -110 0
-3 99 c-1 55 0 106 2 113 4 11 30 13 113 11 l108 -3 0 -110z m235 0 l0 -115
-110 0 -110 0 0 115 0 115 110 0 110 0 0 -115z m240 0 l0 -115 -110 0 -110 0
0 115 0 115 110 0 110 0 0 -115z m235 0 l0 -110 -112 -3 -113 -3 0 116 0 116
113 -3 112 -3 0 -110z m235 0 l0 -115 -110 0 -110 0 0 115 0 115 110 0 110 0
0 -115z m240 0 l0 -116 -112 3 -113 3 -3 99 c-1 55 0 106 2 113 4 10 33 13
116 13 l110 0 0 -115z m230 0 l0 -115 -110 0 -110 0 0 115 0 115 110 0 110 0
0 -115z m240 0 l0 -115 -110 0 -110 0 0 115 0 115 110 0 110 0 0 -115z m235 0
l0 -110 -110 0 -110 0 -3 99 c-1 55 0 106 2 113 4 11 30 13 113 11 l108 -3 0
-110z m235 0 l0 -115 -110 0 -110 0 0 115 0 115 110 0 110 0 0 -115z m240 0
l0 -115 -110 0 -110 0 0 115 0 115 110 0 110 0 0 -115z m235 0 l0 -110 -112
-3 -113 -3 0 116 0 116 113 -3 112 -3 0 -110z m235 0 l0 -115 -110 0 -110 0 0
115 0 115 110 0 110 0 0 -115z m-5430 -236 l0 -111 -102 7 c-57 4 -104 8 -104
9 -1 0 -5 47 -9 104 l-7 102 111 0 111 0 0 -111z m238 63 c2 -31 -1 -44 -12
-48 -12 -5 -16 -21 -16 -65 l0 -59 -100 0 -100 0 0 110 0 111 113 -3 112 -3 3
-43z m232 -62 l0 -110 -105 0 -105 0 0 43 c0 23 -3 72 -7 110 l-6 67 112 0
111 0 0 -110z m240 65 c0 -31 -5 -47 -15 -51 -11 -5 -15 -22 -15 -65 l0 -59
-100 0 -100 0 0 110 0 110 115 0 115 0 0 -45z m230 -65 l0 -110 -105 0 -105 0
0 43 c0 23 -3 72 -7 110 l-6 67 112 0 111 0 0 -110z m240 66 c0 -25 -4 -48
-10 -51 -5 -3 -10 -33 -10 -66 l0 -59 -100 0 -100 0 0 110 0 110 110 0 110 0
0 -44z m238 -68 l3 -108 -106 0 -105 0 0 59 c0 33 -4 63 -10 66 -5 3 -10 26
-10 51 l0 45 113 -3 112 -3 3 -107z m232 67 c0 -31 -5 -47 -15 -51 -11 -5 -15
-22 -15 -65 l0 -59 -95 0 -95 0 0 110 0 110 110 0 110 0 0 -45z m240 -65 l0
-110 -108 0 -109 0 -7 101 c-3 55 -4 105 -1 110 4 5 55 9 116 9 l109 0 0 -110z
m230 60 c0 -38 -4 -50 -15 -50 -12 0 -15 -13 -15 -60 l0 -60 -95 0 -95 0 0
110 0 110 110 0 110 0 0 -50z m240 -60 l0 -110 -110 0 -110 0 0 110 0 110 110
0 110 0 0 -110z m240 65 c0 -31 -5 -47 -15 -51 -11 -5 -15 -22 -15 -65 l0 -59
-100 0 -100 0 0 110 0 110 115 0 115 0 0 -45z m230 -65 l0 -110 -105 0 -105 0
0 43 c0 23 -3 72 -7 110 l-6 67 112 0 111 0 0 -110z m240 65 c0 -31 -5 -47
-15 -51 -11 -5 -15 -22 -15 -65 l0 -59 -95 0 -95 0 0 110 0 110 110 0 110 0 0
-45z m238 -67 l3 -108 -111 0 -110 0 0 43 c0 23 -3 73 -7 110 l-6 68 114 -3
114 -3 3 -107z m232 68 c0 -25 -4 -48 -10 -51 -5 -3 -10 -33 -10 -66 l0 -59
-100 0 -100 0 0 110 0 110 110 0 110 0 0 -44z m240 -66 l0 -110 -105 0 -105 0
0 59 c0 33 -4 63 -10 66 -11 7 -14 78 -3 88 3 4 55 7 115 7 l108 0 0 -110z
m230 60 c0 -38 -4 -50 -15 -50 -12 0 -15 -13 -15 -60 l0 -60 -95 0 -95 0 0
110 0 110 110 0 110 0 0 -50z m240 -60 l0 -110 -110 0 -110 0 0 110 0 110 110
0 110 0 0 -110z m240 65 c0 -31 -5 -47 -15 -51 -11 -5 -15 -22 -15 -65 l0 -59
-100 0 -100 0 0 110 0 110 115 0 115 0 0 -45z m230 -65 l0 -110 -105 0 -105 0
0 43 c0 23 -3 72 -7 110 l-6 67 112 0 111 0 0 -110z m240 65 c0 -31 -5 -47
-15 -51 -11 -5 -15 -22 -15 -65 l0 -59 -95 0 -95 0 0 110 0 110 110 0 110 0 0
-45z m238 -67 l3 -108 -111 0 -110 0 0 43 c0 23 -3 73 -7 110 l-6 68 114 -3
114 -3 3 -107z m232 68 c0 -25 -4 -48 -10 -51 -5 -3 -10 -33 -10 -66 l0 -59
-100 0 -100 0 0 110 0 110 110 0 110 0 0 -44z"/>
</g>
<text id="c1-txt-frequency" x="0" y="0" transform="translate(0,350) rotate(-90)">Cumulative Frequency</text>
<text id="c1-txt-y-0" x="10" y="586">0</text>
<text id="c1-txt-y-1" x="10" y="540">1</text>
<text id="c1-txt-y-2" x="10" y="493">2</text>
<text id="c1-txt-y-3" x="10" y="446">3</text>
<text id="c1-txt-y-4" x="10" y="399">4</text>
<text id="c1-txt-y-5" x="10" y="351">5</text>
<text id="c1-txt-y-6" x="10" y="305">6</text>
<text id="c1-txt-y-7" x="10" y="258">7</text>
<text id="c1-txt-y-8" x="10" y="209">8</text>
<text id="c1-txt-y-9" x="10" y="163">9</text>
<text id="c1-txt-y-10" x="10" y="116">10</text>
<text id="c1-txt-y-11" x="10" y="69">11</text>
<text id="c1-txt-y-12" x="10" y="20">12</text>
<text id="c1-txt-label" x="250" y="640">Label</text>
<text id="c1-txt-x-0" x="42" y="615">0</text>
<text id="c1-txt-x-1" x="89" y="615">0</text>
<text id="c1-txt-x-2" x="136" y="615">0</text>
<text id="c1-txt-x-3" x="183" y="615">0</text>
<text id="c1-txt-x-4" x="230" y="615">0</text>
<text id="c1-txt-x-5" x="277" y="615">0</text>
<text id="c1-txt-x-6" x="324" y="615">0</text>
<text id="c1-txt-x-7" x="371" y="615">0</text>
<text id="c1-txt-x-8" x="418" y="615">0</text>
<text id="c1-txt-x-9" x="465" y="615">0</text>
<text id="c1-txt-x-10" x="512" y="615">0</text>
<text id="c1-txt-x-11" x="559" y="615">0</text>
<text id="c1-txt-x-12" x="606" y="615">0</text>
</svg>
