<?xml version="1.0" standalone="no"?>
<!DOCTYPE svg PUBLIC "-//W3C//DTD SVG 20010904//EN"
 "http://www.w3.org/TR/2001/REC-SVG-20010904/DTD/svg10.dtd">
<svg version="1.0" xmlns="http://www.w3.org/2000/svg"
 width="592.000000pt" height="592.000000pt" viewBox="0 0 592.000000 592.000000"
 preserveAspectRatio="xMidYMid meet">

<g transform="translate(0.000000,592.000000) scale(0.100000,-0.100000)"
fill="#000000" stroke="none">
<path d="M2815 5914 c-303 -23 -487 -55 -733 -130 -247 -75 -526 -208 -754
-360 -1014 -676 -1508 -1877 -1263 -3069 136 -662 511 -1275 1035 -1696 445
-357 933 -562 1520 -641 129 -17 546 -17 680 1 692 89 1271 370 1750 850 298
299 502 605 658 991 229 567 273 1212 122 1815 -209 837 -771 1539 -1538 1924
-323 162 -618 252 -972 295 -118 15 -416 27 -505 20z m135 -1489 c0 -1304 2
-1475 15 -1475 13 0 15 171 15 1476 l0 1477 132 -7 c611 -34 1199 -257 1680
-638 132 -104 362 -334 466 -465 153 -194 290 -418 392 -643 99 -220 193 -562
232 -840 17 -128 17 -584 -1 -710 -75 -538 -264 -1003 -576 -1414 -474 -626
-1151 -1023 -1948 -1142 -145 -22 -496 -29 -653 -15 -576 54 -1078 252 -1549
610 -126 96 -409 376 -505 501 -343 446 -534 908 -612 1480 -19 145 -16 566 6
715 90 619 329 1137 728 1586 530 594 1324 963 2106 978 l72 1 0 -1475z"/>
</g>
</svg>
