<svg version="1.0" xmlns="http://www.w3.org/2000/svg"
 width="613pt" height="476pt" viewBox="0 0 613 476"
 preserveAspectRatio="xMidYMid meet">
<g transform="translate(50,426) scale(0.1,-0.1)" fill="#000000" stroke="none">
<path d="M107 4065 c-32 -66 -32 -65 -7 -65 20 0 20 -8 22 -1942 l3 -1943 233
-3 232 -2 0 -25 c0 -16 6 -25 15 -25 9 0 15 9 15 25 l0 25 225 0 225 0 0 -25
c0 -16 6 -25 15 -25 9 0 15 9 15 25 l0 25 215 0 215 0 0 -25 c0 -16 6 -25 15
-25 9 0 15 9 15 25 l0 25 225 0 225 0 0 -25 c0 -16 6 -25 15 -25 9 0 15 9 15
25 l0 25 220 0 220 0 0 -25 c0 -16 6 -25 15 -25 9 0 15 9 15 25 l0 24 220 3
220 3 0 -27 c0 -18 5 -28 15 -28 10 0 15 10 15 30 l0 30 225 0 225 0 0 -30 c0
-20 5 -30 15 -30 10 0 15 10 15 30 l0 30 220 0 220 0 0 -30 c0 -20 5 -30 15
-30 10 0 15 10 15 30 l0 30 220 0 220 0 0 -30 c0 -20 5 -30 15 -30 10 0 15 10
15 30 l0 30 225 0 225 0 0 -30 c0 -20 5 -30 15 -30 10 0 15 10 15 30 l0 30
250 0 250 0 0 -25 0 -25 62 31 62 31 -54 29 c-66 34 -70 34 -70 9 0 -13 -7
-20 -20 -20 -20 0 -20 7 -20 1885 l0 1885 -2595 0 -2595 0 0 40 c0 33 3 40 20
40 25 0 25 4 -8 68 l-28 52 -27 -55z m493 -395 l0 -230 -225 0 -225 0 0 230 0
230 225 0 225 0 0 -230z m478 3 l-3 -228 -227 -3 -228 -2 0 230 0 230 230 0
230 0 -2 -227z m472 -3 l0 -230 -230 0 -230 0 0 230 0 230 230 0 230 0 0 -230z
m470 0 l0 -230 -230 0 -230 0 0 230 0 230 230 0 230 0 0 -230z m470 0 l0 -230
-227 2 -228 3 -3 228 -2 227 230 0 230 0 0 -230z m478 3 l-3 -228 -227 -3
-228 -2 0 230 0 230 230 0 230 0 -2 -227z m472 -3 l0 -230 -230 0 -230 0 0
230 0 230 230 0 230 0 0 -230z m470 0 l0 -230 -230 0 -230 0 0 230 0 230 230
0 230 0 0 -230z m470 0 l0 -230 -227 2 -228 3 -3 228 -2 227 230 0 230 0 0
-230z m478 3 l-3 -228 -227 -3 -228 -2 0 230 0 230 230 0 230 0 -2 -227z m472
-3 l0 -230 -230 0 -230 0 0 230 0 230 230 0 230 0 0 -230z m-4730 -470 l0
-230 -225 0 -225 0 0 230 0 230 225 0 225 0 0 -230z m480 0 l0 -230 -230 0
-230 0 0 230 0 230 230 0 230 0 0 -230z m470 0 l0 -230 -230 0 -230 0 0 230 0
230 230 0 230 0 0 -230z m470 0 l0 -230 -230 0 -230 0 0 230 0 230 230 0 230
0 0 -230z m470 0 l0 -230 -230 0 -230 0 0 230 0 230 230 0 230 0 0 -230z m480
0 l0 -230 -230 0 -230 0 0 230 0 230 230 0 230 0 0 -230z m470 0 l0 -230 -230
0 -230 0 0 230 0 230 230 0 230 0 0 -230z m470 0 l0 -230 -230 0 -230 0 0 230
0 230 230 0 230 0 0 -230z m470 0 l0 -230 -230 0 -230 0 0 230 0 230 230 0
230 0 0 -230z m475 0 l0 -225 -227 -3 -228 -2 0 230 0 230 228 -2 227 -3 0
-225z m475 0 l0 -230 -230 0 -230 0 0 230 0 230 230 0 230 0 0 -230z m-4730
-470 l0 -230 -225 0 -225 0 0 230 0 230 225 0 225 0 0 -230z m480 0 l0 -230
-230 0 -230 0 0 230 0 230 230 0 230 0 0 -230z m470 0 l0 -230 -230 0 -230 0
0 230 0 230 230 0 230 0 0 -230z m470 0 l0 -230 -230 0 -230 0 0 230 0 230
230 0 230 0 0 -230z m470 0 l0 -230 -230 0 -230 0 0 230 0 230 230 0 230 0 0
-230z m480 0 l0 -230 -230 0 -230 0 0 230 0 230 230 0 230 0 0 -230z m470 0
l0 -230 -230 0 -230 0 0 230 0 230 230 0 230 0 0 -230z m470 0 l0 -230 -230 0
-230 0 0 230 0 230 230 0 230 0 0 -230z m470 0 l0 -230 -230 0 -230 0 0 230 0
230 230 0 230 0 0 -230z m475 0 l0 -225 -227 -3 -228 -2 0 230 0 230 228 -2
227 -3 0 -225z m475 0 l0 -230 -230 0 -230 0 0 230 0 230 230 0 230 0 0 -230z
m-4730 -470 l0 -230 -225 0 -225 0 0 230 0 230 225 0 225 0 0 -230z m478 -2
l2 -228 -230 0 -230 0 0 230 0 230 228 -2 227 -3 3 -227z m472 2 l0 -230 -230
0 -230 0 0 230 0 230 230 0 230 0 0 -230z m470 0 l0 -230 -230 0 -230 0 0 230
0 230 230 0 230 0 0 -230z m470 0 l0 -230 -230 0 -230 0 0 223 c0 123 3 227 7
230 3 4 107 7 230 7 l223 0 0 -230z m478 -2 l2 -228 -230 0 -230 0 0 230 0
230 228 -2 227 -3 3 -227z m472 2 l0 -230 -230 0 -230 0 0 230 0 230 230 0
230 0 0 -230z m470 0 l0 -230 -230 0 -230 0 0 230 0 230 230 0 230 0 0 -230z
m470 0 l0 -230 -230 0 -230 0 0 223 c0 123 3 227 7 230 3 4 107 7 230 7 l223
0 0 -230z m478 -2 l2 -228 -230 0 -230 0 0 230 0 230 228 -2 227 -3 3 -227z
m472 2 l0 -230 -230 0 -230 0 0 230 0 230 230 0 230 0 0 -230z m-4730 -480 l0
-230 -225 0 -225 0 0 230 0 230 225 0 225 0 0 -230z m478 3 l-3 -228 -227 -3
-228 -2 0 230 0 230 230 0 230 0 -2 -227z m472 -3 l0 -230 -230 0 -230 0 0
230 0 230 230 0 230 0 0 -230z m470 0 l0 -230 -230 0 -230 0 0 230 0 230 230
0 230 0 0 -230z m470 0 l0 -230 -227 2 -228 3 -3 228 -2 227 230 0 230 0 0
-230z m478 3 l-3 -228 -227 -3 -228 -2 0 230 0 230 230 0 230 0 -2 -227z m472
-3 l0 -230 -230 0 -230 0 0 230 0 230 230 0 230 0 0 -230z m470 0 l0 -230
-230 0 -230 0 0 230 0 230 230 0 230 0 0 -230z m470 0 l0 -230 -227 2 -228 3
-3 228 -2 227 230 0 230 0 0 -230z m478 3 l-3 -228 -227 -3 -228 -2 0 230 0
230 230 0 230 0 -2 -227z m472 -3 l0 -230 -230 0 -230 0 0 230 0 230 230 0
230 0 0 -230z m-4730 -470 l0 -230 -225 0 -225 0 0 230 0 230 225 0 225 0 0
-230z m480 0 l0 -230 -230 0 -230 0 0 230 0 230 230 0 230 0 0 -230z m470 0
l0 -230 -230 0 -230 0 0 230 0 230 230 0 230 0 0 -230z m470 0 l0 -230 -230 0
-230 0 0 230 0 230 230 0 230 0 0 -230z m470 0 l0 -230 -230 0 -230 0 0 230 0
230 230 0 230 0 0 -230z m480 0 l0 -230 -230 0 -230 0 0 230 0 230 230 0 230
0 0 -230z m470 0 l0 -230 -230 0 -230 0 0 230 0 230 230 0 230 0 0 -230z m470
0 l0 -230 -230 0 -230 0 0 230 0 230 230 0 230 0 0 -230z m470 0 l0 -230 -230
0 -230 0 0 230 0 230 230 0 230 0 0 -230z m475 0 l0 -225 -227 -3 -228 -2 0
230 0 230 228 -2 227 -3 0 -225z m475 0 l0 -230 -230 0 -230 0 0 230 0 230
230 0 230 0 0 -230z m-4730 -470 l0 -230 -225 0 -225 0 0 230 0 230 225 0 225
0 0 -230z m480 0 l0 -230 -230 0 -230 0 0 230 0 230 230 0 230 0 0 -230z m470
0 l0 -230 -230 0 -230 0 0 230 0 230 230 0 230 0 0 -230z m470 0 l0 -230 -230
0 -230 0 0 230 0 230 230 0 230 0 0 -230z m470 0 l0 -230 -230 0 -230 0 0 230
0 230 230 0 230 0 0 -230z m480 0 l0 -230 -230 0 -230 0 0 230 0 230 230 0
230 0 0 -230z m470 0 l0 -230 -230 0 -230 0 0 230 0 230 230 0 230 0 0 -230z
m470 0 l0 -230 -230 0 -230 0 0 230 0 230 230 0 230 0 0 -230z m470 0 l0 -230
-230 0 -230 0 0 230 0 230 230 0 230 0 0 -230z m475 0 l0 -225 -227 -3 -228
-2 0 230 0 230 228 -2 227 -3 0 -225z m475 0 l0 -230 -230 0 -230 0 0 230 0
230 230 0 230 0 0 -230z m-4730 -402 c0 -90 -3 -193 -7 -231 l-6 -67 -218 0
-219 0 0 230 0 230 225 0 225 0 0 -162z m478 32 c2 -69 0 -171 -3 -228 l-7
-102 -224 0 -224 0 0 230 0 230 228 -2 227 -3 3 -125z m472 -49 c0 -109 -4
-182 -10 -186 -5 -3 -10 -26 -10 -51 l0 -44 -214 0 -213 0 -7 77 c-3 42 -6
145 -6 230 l0 153 230 0 230 0 0 -179z m470 26 c0 -85 -3 -188 -6 -230 l-7
-77 -223 0 -224 0 0 230 0 230 230 0 230 0 0 -153z m470 -9 c0 -90 -3 -193 -7
-231 l-6 -67 -217 0 -217 0 -7 77 c-8 100 -8 368 1 376 3 4 107 7 230 7 l223
0 0 -162z m478 -17 c1 -110 -1 -178 -8 -185 -5 -5 -10 -29 -10 -53 l0 -43
-220 0 -220 0 0 230 0 230 228 -2 227 -3 3 -174z m472 26 c0 -85 -3 -188 -6
-231 l-7 -76 -221 2 -221 3 -3 228 -2 227 230 0 230 0 0 -153z m470 0 c0 -85
-3 -188 -6 -230 l-7 -77 -217 0 -217 0 -7 77 c-3 42 -6 145 -6 230 l0 153 230
0 230 0 0 -153z m468 -67 c-2 -120 -7 -223 -12 -227 -4 -4 -103 -9 -220 -11
l-213 -3 -6 77 c-9 101 -9 369 0 377 3 4 107 7 231 7 l224 0 -4 -220z m480 85
c2 -72 0 -172 -3 -223 l-7 -92 -224 0 -224 0 0 225 0 225 228 -2 227 -3 3
-130z m472 -90 l0 -225 -224 0 -223 0 -6 68 c-4 37 -7 138 -7 225 l0 157 230
0 230 0 0 -225z"/>
</g>
<text id="c2-txt-title" x="150" y="15" style="font-size:24px;text-decoration:underline;">Title</text>
<text id="c2-txt-frequency" x="0" y="0" transform="translate(20,250) rotate(-90)">Frequency</text>
<text id="c2-txt-y-0" x="32" y="418">0</text>
<text id="c2-txt-y-1" x="32" y="371">1</text>
<text id="c2-txt-y-2" x="32" y="324">2</text>
<text id="c2-txt-y-3" x="32" y="277">3</text>
<text id="c2-txt-y-4" x="32" y="230">4</text>
<text id="c2-txt-y-5" x="32" y="183">5</text>
<text id="c2-txt-y-6" x="32" y="136">6</text>
<text id="c2-txt-y-7" x="32" y="89">7</text>
<text id="c2-txt-y-8" x="32" y="42">8</text>
<text id="c2-txt-label" x="150" y="460">Label</text>
</svg>
