<svg version="1.0" xmlns="http://www.w3.org/2000/svg"
 width="613pt" height="476pt" viewBox="0 0 613 476"
 preserveAspectRatio="xMidYMid meet">
<g transform="translate(50,426) scale(0.1,-0.1)" fill="#000000" stroke="none">
<path d="M107 4065 c-32 -66 -32 -65 -7 -65 20 0 20 -7 20 -1940 l0 -1940 245
0 245 0 0 -30 c0 -20 5 -30 15 -30 10 0 15 10 15 30 l0 30 220 0 220 0 0 -30
c0 -20 5 -30 15 -30 10 0 15 10 15 30 l0 30 220 0 220 0 0 -30 c0 -20 5 -30
15 -30 10 0 15 10 15 30 l0 30 220 0 220 0 0 -30 c0 -20 5 -30 15 -30 10 0 15
10 15 30 l0 30 225 0 225 0 0 -30 c0 -20 5 -30 15 -30 10 0 15 10 15 30 l0 30
220 0 220 0 0 -30 c0 -20 5 -30 15 -30 10 0 15 10 15 30 l0 30 220 0 220 0 0
-30 c0 -20 5 -30 15 -30 10 0 15 10 15 30 l0 30 220 0 220 0 0 -30 c0 -20 5
-30 15 -30 10 0 15 10 15 30 l0 30 220 0 220 0 0 -30 c0 -20 5 -30 15 -30 10
0 15 10 15 30 l0 30 225 0 225 0 0 -30 c0 -20 5 -30 15 -30 10 0 15 10 15 30
l0 30 245 0 c238 0 245 -1 245 -20 0 -25 4 -25 68 8 l52 28 -55 27 c-66 32
-65 32 -65 7 0 -11 -7 -20 -15 -20 -13 0 -15 216 -15 1885 l0 1885 -2600 0
-2600 0 0 40 c0 33 3 40 20 40 25 0 25 4 -8 68 l-28 52 -27 -55z m503 -385 l0
-230 -230 0 -230 0 0 230 0 230 230 0 230 0 0 -230z m470 0 l0 -230 -230 0
-230 0 0 230 0 230 230 0 230 0 0 -230z m470 0 l0 -230 -230 0 -230 0 0 223
c0 123 3 227 7 230 3 4 107 7 230 7 l223 0 0 -230z m478 -2 l2 -228 -230 0
-230 0 0 230 0 230 228 -2 227 -3 3 -227z m472 2 l0 -230 -230 0 -230 0 0 230
0 230 230 0 230 0 0 -230z m470 0 l0 -230 -230 0 -230 0 0 230 0 230 230 0
230 0 0 -230z m470 0 l0 -230 -230 0 -230 0 0 223 c0 123 3 227 7 230 3 4 107
7 230 7 l223 0 0 -230z m478 -2 l2 -228 -230 0 -230 0 0 230 0 230 228 -2 227
-3 3 -227z m472 2 l0 -230 -230 0 -230 0 0 230 0 230 230 0 230 0 0 -230z
m470 0 l0 -230 -230 0 -230 0 0 230 0 230 230 0 230 0 0 -230z m470 0 l0 -230
-230 0 -230 0 0 223 c0 123 3 227 7 230 3 4 107 7 230 7 l223 0 0 -230z
m-4720 -480 l0 -230 -230 0 -230 0 0 230 0 230 230 0 230 0 0 -230z m470 0 l0
-230 -230 0 -230 0 0 230 0 230 230 0 230 0 0 -230z m470 0 l0 -230 -227 2
-228 3 -3 228 -2 227 230 0 230 0 0 -230z m478 3 l-3 -228 -227 -3 -228 -2 0
230 0 230 230 0 230 0 -2 -227z m472 -3 l0 -230 -230 0 -230 0 0 230 0 230
230 0 230 0 0 -230z m470 0 l0 -230 -230 0 -230 0 0 230 0 230 230 0 230 0 0
-230z m470 0 l0 -230 -227 2 -228 3 -3 228 -2 227 230 0 230 0 0 -230z m478 3
l-3 -228 -227 -3 -228 -2 0 230 0 230 230 0 230 0 -2 -227z m472 -3 l0 -230
-230 0 -230 0 0 230 0 230 230 0 230 0 0 -230z m470 0 l0 -230 -230 0 -230 0
0 230 0 230 230 0 230 0 0 -230z m470 0 l0 -230 -227 2 -228 3 -3 228 -2 227
230 0 230 0 0 -230z m-4720 -470 l0 -230 -230 0 -230 0 0 230 0 230 230 0 230
0 0 -230z m470 0 l0 -230 -230 0 -230 0 0 230 0 230 230 0 230 0 0 -230z m470
0 l0 -230 -227 2 -228 3 -3 215 c-1 118 0 220 2 227 4 10 57 13 231 13 l225 0
0 -230z m480 0 l0 -230 -230 0 -230 0 0 230 0 230 230 0 230 0 0 -230z m470 0
l0 -230 -230 0 -230 0 0 230 0 230 230 0 230 0 0 -230z m470 0 l0 -230 -230 0
-230 0 0 230 0 230 230 0 230 0 0 -230z m470 0 l0 -230 -230 0 -230 0 0 230 0
230 230 0 230 0 0 -230z m480 0 l0 -230 -230 0 -230 0 0 230 0 230 230 0 230
0 0 -230z m470 0 l0 -230 -230 0 -230 0 0 230 0 230 230 0 230 0 0 -230z m470
0 l0 -230 -230 0 -230 0 0 230 0 230 230 0 230 0 0 -230z m470 0 l0 -230 -230
0 -230 0 0 230 0 230 230 0 230 0 0 -230z m-4720 -470 l0 -230 -230 0 -230 0
0 230 0 230 230 0 230 0 0 -230z m470 0 l0 -230 -230 0 -230 0 0 230 0 230
230 0 230 0 0 -230z m470 0 l0 -230 -227 2 -228 3 -3 215 c-1 118 0 220 2 227
4 10 57 13 231 13 l225 0 0 -230z m480 0 l0 -230 -230 0 -230 0 0 230 0 230
230 0 230 0 0 -230z m470 0 l0 -230 -230 0 -230 0 0 230 0 230 230 0 230 0 0
-230z m470 0 l0 -230 -230 0 -230 0 0 230 0 230 230 0 230 0 0 -230z m470 0
l0 -230 -230 0 -230 0 0 230 0 230 230 0 230 0 0 -230z m480 0 l0 -230 -230 0
-230 0 0 230 0 230 230 0 230 0 0 -230z m470 0 l0 -230 -230 0 -230 0 0 230 0
230 230 0 230 0 0 -230z m470 0 l0 -230 -230 0 -230 0 0 230 0 230 230 0 230
0 0 -230z m470 0 l0 -230 -230 0 -230 0 0 230 0 230 230 0 230 0 0 -230z
m-4720 -470 l0 -230 -230 0 -230 0 0 230 0 230 230 0 230 0 0 -230z m470 0 l0
-230 -230 0 -230 0 0 230 0 230 230 0 230 0 0 -230z m470 0 l0 -230 -230 0
-230 0 0 223 c0 123 3 227 7 230 3 4 107 7 230 7 l223 0 0 -230z m478 -2 l2
-228 -230 0 -230 0 0 230 0 230 228 -2 227 -3 3 -227z m472 2 l0 -230 -230 0
-230 0 0 230 0 230 230 0 230 0 0 -230z m470 0 l0 -230 -230 0 -230 0 0 230 0
230 230 0 230 0 0 -230z m470 0 l0 -230 -230 0 -230 0 0 223 c0 123 3 227 7
230 3 4 107 7 230 7 l223 0 0 -230z m478 -2 l2 -228 -230 0 -230 0 0 230 0
230 228 -2 227 -3 3 -227z m472 2 l0 -230 -230 0 -230 0 0 230 0 230 230 0
230 0 0 -230z m470 0 l0 -230 -230 0 -230 0 0 230 0 230 230 0 230 0 0 -230z
m470 0 l0 -230 -230 0 -230 0 0 223 c0 123 3 227 7 230 3 4 107 7 230 7 l223
0 0 -230z m-4720 -480 l0 -230 -230 0 -230 0 0 230 0 230 230 0 230 0 0 -230z
m470 0 l0 -230 -230 0 -230 0 0 230 0 230 230 0 230 0 0 -230z m470 0 l0 -230
-227 2 -228 3 -3 228 -2 227 230 0 230 0 0 -230z m478 3 l-3 -228 -227 -3
-228 -2 0 230 0 230 230 0 230 0 -2 -227z m472 -3 l0 -230 -230 0 -230 0 0
230 0 230 230 0 230 0 0 -230z m470 0 l0 -230 -230 0 -230 0 0 230 0 230 230
0 230 0 0 -230z m470 0 l0 -230 -227 2 -228 3 -3 228 -2 227 230 0 230 0 0
-230z m478 3 l-3 -228 -227 -3 -228 -2 0 230 0 230 230 0 230 0 -2 -227z m472
-3 l0 -230 -230 0 -230 0 0 230 0 230 230 0 230 0 0 -230z m470 0 l0 -230
-230 0 -230 0 0 230 0 230 230 0 230 0 0 -230z m470 0 l0 -230 -227 2 -228 3
-3 228 -2 227 230 0 230 0 0 -230z m-4720 -470 l0 -230 -230 0 -230 0 0 230 0
230 230 0 230 0 0 -230z m470 0 l0 -230 -230 0 -230 0 0 230 0 230 230 0 230
0 0 -230z m470 0 l0 -230 -227 2 -228 3 -3 215 c-1 118 0 220 2 227 4 10 57
13 231 13 l225 0 0 -230z m480 0 l0 -230 -230 0 -230 0 0 230 0 230 230 0 230
0 0 -230z m470 0 l0 -230 -230 0 -230 0 0 230 0 230 230 0 230 0 0 -230z m470
0 l0 -230 -230 0 -230 0 0 230 0 230 230 0 230 0 0 -230z m470 0 l0 -230 -230
0 -230 0 0 230 0 230 230 0 230 0 0 -230z m480 0 l0 -230 -230 0 -230 0 0 230
0 230 230 0 230 0 0 -230z m470 0 l0 -230 -230 0 -230 0 0 230 0 230 230 0
230 0 0 -230z m470 0 l0 -230 -230 0 -230 0 0 230 0 230 230 0 230 0 0 -230z
m470 0 l0 -230 -230 0 -230 0 0 230 0 230 230 0 230 0 0 -230z m-4720 -465 l0
-225 -230 0 -230 0 0 225 0 225 230 0 230 0 0 -225z m470 0 l0 -225 -220 0
-220 0 0 39 c0 22 -4 43 -10 46 -6 4 -10 77 -10 186 l0 179 230 0 230 0 0
-225z m470 0 l0 -225 -220 0 -220 0 0 39 c0 22 -4 43 -10 46 -11 7 -14 347 -3
358 3 4 107 7 230 7 l223 0 0 -225z m480 68 c0 -87 -3 -188 -7 -226 l-6 -67
-217 0 -217 0 -7 61 c-3 34 -6 136 -6 225 l0 164 230 0 230 0 0 -157z m470
-68 l0 -225 -224 0 -223 0 -6 68 c-4 37 -7 138 -7 225 l0 157 230 0 230 0 0
-225z m470 0 l0 -225 -220 0 -220 0 0 39 c0 22 -4 43 -10 46 -6 4 -10 77 -10
186 l0 179 230 0 230 0 0 -225z m470 0 l0 -225 -220 0 -220 0 0 39 c0 22 -4
43 -10 46 -6 4 -10 77 -10 186 l0 179 230 0 230 0 0 -225z m480 68 c0 -87 -3
-188 -7 -226 l-6 -67 -217 0 -217 0 -7 61 c-3 34 -6 136 -6 225 l0 164 230 0
230 0 0 -157z m470 0 c0 -87 -3 -188 -7 -226 l-6 -67 -217 0 -217 0 -6 68 c-4
37 -7 138 -7 225 l0 157 230 0 230 0 0 -157z m470 -68 l0 -225 -224 0 -223 0
-6 68 c-4 37 -7 138 -7 225 l0 157 230 0 230 0 0 -225z m470 0 l0 -225 -220 0
-220 0 0 39 c0 22 -4 43 -10 46 -6 4 -10 77 -10 186 l0 179 230 0 230 0 0
-225z"/>
</g>
<text id="c1-txt-title" x="150" y="15" style="font-size:24px;text-decoration:underline;">Title</text>
<text id="c1-txt-frequency" x="0" y="0" transform="translate(20,250) rotate(-90)">Frequency</text>
<text id="c1-txt-y-0" x="32" y="418">0</text>
<text id="c1-txt-y-1" x="32" y="371">1</text>
<text id="c1-txt-y-2" x="32" y="324">2</text>
<text id="c1-txt-y-3" x="32" y="277">3</text>
<text id="c1-txt-y-4" x="32" y="230">4</text>
<text id="c1-txt-y-5" x="32" y="183">5</text>
<text id="c1-txt-y-6" x="32" y="136">6</text>
<text id="c1-txt-y-7" x="32" y="89">7</text>
<text id="c1-txt-y-8" x="32" y="42">8</text>
<text id="c1-txt-label" x="150" y="460">Label</text>
<text id="c1-txt-x-0" x="156" y="435">0</text>
<text id="c1-txt-x-1" x="251" y="435">0</text>
<text id="c1-txt-x-2" x="346" y="435">0</text>
<text id="c1-txt-x-3" x="441" y="435">0</text>
<text id="c1-txt-x-4" x="536" y="435">0</text>
</svg>