<?xml version="1.0" standalone="no"?>
<!DOCTYPE svg PUBLIC "-//W3C//DTD SVG 20010904//EN"
 "http://www.w3.org/TR/2001/REC-SVG-20010904/DTD/svg10.dtd">
<svg version="1.0" xmlns="http://www.w3.org/2000/svg"
 width="600.000000pt" height="339.000000pt" viewBox="0 0 600.000000 339.000000"
 preserveAspectRatio="xMidYMid meet">

<g transform="translate(-30.000000,339.000000) scale(0.11,-0.11)"
fill="#000000" stroke="none">
<path d="M330 3125 c0 -19 3 -35 8 -35 4 0 36 -5 71 -10 75 -13 127 -37 170
-81 60 -60 28 26 615 -1619 l383 -1075 36 -3 c26 -2 38 2 45 15 6 10 107 293
225 628 287 812 396 1117 400 1122 6 6 59 -137 352 -962 153 -429 282 -786
288 -792 5 -7 24 -13 43 -13 41 0 43 3 104 184 27 78 85 247 130 376 45 129
104 298 130 375 26 77 82 239 125 360 42 121 155 450 252 730 96 281 190 538
209 572 66 119 135 168 267 188 35 6 37 8 37 41 l0 34 -417 -2 -418 -3 -3 -31
-3 -30 87 -12 c159 -21 224 -74 224 -182 0 -55 -36 -201 -81 -325 -28 -78
-182 -526 -269 -780 -65 -192 -223 -647 -252 -729 l-14 -39 -12 29 c-6 16 -97
274 -202 574 -105 300 -232 660 -281 800 -127 359 -150 468 -115 551 28 66 80
93 199 104 l77 7 0 34 0 34 -545 0 -545 0 0 -34 c0 -34 0 -34 58 -41 76 -9
156 -49 207 -101 61 -62 106 -156 195 -408 l80 -225 -124 -358 c-328 -947
-333 -960 -341 -951 -4 4 -36 95 -345 973 -266 754 -299 861 -285 931 14 76
89 126 208 139 l57 6 0 35 0 34 -515 0 -515 0 0 -35z"/>
<path d="M5071 2945 c-74 -30 -136 -57 -139 -59 -2 -3 -2 -11 1 -19 4 -10 18
-13 54 -10 63 6 83 -10 94 -73 11 -71 11 -592 -1 -635 -13 -47 -38 -68 -91
-77 -30 -5 -45 -13 -47 -25 -3 -16 15 -17 238 -17 224 0 241 1 238 17 -2 12
-16 20 -40 24 -44 7 -83 31 -100 61 -10 17 -14 97 -16 299 l-3 275 43 64 c24
36 55 71 69 79 24 13 30 12 85 -22 71 -44 108 -47 146 -10 21 20 28 36 28 66
0 76 -61 124 -145 114 -60 -6 -116 -46 -173 -124 l-47 -63 -3 95 -3 95 -27 0
c-15 0 -87 -25 -161 -55z"/>
<path d="M4341 2954 c-167 -45 -291 -186 -335 -381 -39 -175 5 -346 124 -476
122 -133 325 -171 498 -92 69 32 162 121 200 193 103 195 98 409 -13 576 -102
154 -296 228 -474 180z m128 -65 c97 -21 176 -122 218 -279 25 -92 25 -322 0
-403 -49 -161 -228 -218 -347 -111 -108 98 -169 316 -149 530 13 136 78 236
169 262 47 14 51 14 109 1z"/>
<path d="M4015 1764 c-60 -25 -122 -50 -137 -56 -18 -6 -28 -17 -28 -30 0 -17
5 -19 44 -13 92 14 106 -18 106 -257 l0 -167 -52 32 c-49 31 -55 32 -157 32
-100 0 -110 -2 -173 -33 -120 -59 -224 -200 -264 -362 -25 -99 -15 -254 21
-344 36 -88 123 -184 203 -223 50 -24 69 -28 147 -28 101 0 149 17 222 80 23
19 44 35 47 35 3 0 6 -27 6 -60 0 -58 1 -60 26 -60 26 0 190 62 265 100 54 28
44 51 -19 44 -68 -8 -82 6 -93 97 -4 41 -8 341 -9 667 l0 592 -22 0 c-13 0
-72 -21 -133 -46z m-146 -539 c46 -23 99 -90 115 -146 13 -42 16 -106 16 -310
l0 -257 -32 -24 c-115 -87 -230 -79 -325 24 -55 61 -80 112 -99 205 -19 92
-14 240 10 320 18 58 70 137 107 165 63 47 145 56 208 23z"/>
<path d="M4590 1764 c-168 -70 -170 -72 -163 -89 4 -13 14 -15 44 -10 21 4 47
4 57 1 46 -15 47 -30 50 -591 2 -291 0 -554 -3 -584 -9 -70 -46 -111 -99 -111
-29 0 -36 -4 -36 -20 0 -19 7 -20 230 -20 223 0 230 1 230 20 0 17 -7 20 -40
20 -30 0 -48 7 -72 29 l-33 29 -3 686 -3 686 -27 -1 c-15 0 -74 -20 -132 -45z"/>
<path d="M5247 1286 c-85 -35 -135 -73 -183 -139 -52 -70 -78 -137 -94 -242
-39 -252 60 -475 248 -563 50 -24 70 -27 157 -27 86 0 107 3 150 24 95 47 188
163 221 278 27 92 0 114 -41 33 -72 -141 -194 -198 -337 -156 -61 18 -149 88
-188 151 -32 51 -58 137 -66 215 l-7 70 328 0 328 0 -5 63 c-10 122 -88 234
-198 286 -46 22 -72 26 -155 29 -87 2 -107 -1 -158 -22z m146 -57 c44 -12 102
-59 124 -102 8 -17 18 -54 22 -84 l8 -53 -219 0 -218 0 6 28 c24 111 76 177
163 208 45 16 66 17 114 3z"/>
</g>
</svg>
